<svg id="chart" data-name="chart" xmlns="http://www.w3.org/2000/svg" viewBox="0 0 1983.52 1497.1"><defs><style>.cls-1{fill:none;stroke:#000;stroke-width:2px;}.cls-1,.cls-10,.cls-2,.cls-22,.cls-23,.cls-24,.cls-3,.cls-4,.cls-7,.cls-8,.cls-9{stroke-miterlimit:10;}.cls-2{fill:#c6e8a6;}.cls-2,.cls-22,.cls-3,.cls-4{stroke:#6daf3d;}.cls-22,.cls-3,.cls-4{fill:#6daf3d;}.cls-11,.cls-15,.cls-4,.cls-9{font-size:50px;}.cls-11,.cls-15,.cls-22,.cls-23,.cls-24,.cls-4,.cls-9{font-family:MyriadPro-Regular, Myriad Pro;}.cls-5{letter-spacing:0em;}.cls-6{letter-spacing:0em;}.cls-7{fill:#a4c1ea;}.cls-23,.cls-7,.cls-8,.cls-9{stroke:#4b71c1;}.cls-23,.cls-8,.cls-9{fill:#4b71c1;}.cls-10,.cls-15,.cls-24{fill:#7f7f7f;}.cls-10,.cls-24{stroke:#7f7f7f;}.cls-11{fill:#fff;}.cls-12{letter-spacing:-0.01em;}.cls-13{letter-spacing:0em;}.cls-14{letter-spacing:-0.01em;}.cls-16{letter-spacing:0em;}.cls-17{letter-spacing:0em;}.cls-18{letter-spacing:0em;}.cls-19{letter-spacing:-0.01em;}.cls-20{letter-spacing:0em;}.cls-21{letter-spacing:-0.01em;}.cls-22,.cls-23,.cls-24{font-size:60px;}</style></defs><title>Artboard 1</title><line class="cls-1" x1="529" y1="33" x2="529" y2="1200"/><rect id="green2" class="cls-2" x="1558" y="623" width="400" height="336"/><rect id="green1" class="cls-3" x="1558" y="350" width="400" height="253"/><text class="cls-4" transform="translate(1683.29 1015)">5,300€</text><text class="cls-4" transform="translate(1683.29 325)">5,300€</text><text class="cls-4" transform="translate(1697.06 145)">good<tspan x="-47.45" y="60">insul</tspan><tspan class="cls-5" x="51.15" y="60">a</tspan><tspan class="cls-6" x="75.05" y="60">tion</tspan></text><rect id="blue2" class="cls-7" x="1062.58" y="623" width="400" height="336"/><rect id="blue1" class="cls-8" x="1062.58" y="350" width="400" height="253"/><text class="cls-9" transform="translate(1193.29 325)">5,300€</text><text class="cls-9" transform="translate(1193.29 1015)">5,300€</text><text class="cls-9" transform="translate(1209.36 145)">basic<tspan x="-49.75" y="60">insul</tspan><tspan class="cls-5" x="48.85" y="60">a</tspan><tspan class="cls-6" x="72.75" y="60">tion</tspan></text><rect id="gray" class="cls-10" x="567.17" y="88.5" width="400" height="514.5"/><text class="cls-11" transform="translate(697.87 205)">5,300€</text><text class="cls-11" transform="translate(688.42 145)"><tspan class="cls-12">C</tspan><tspan class="cls-6" x="28.4" y="0">u</tspan><tspan class="cls-13" x="55.95" y="0">r</tspan><tspan class="cls-14" x="72.5" y="0">r</tspan><tspan x="88.35" y="0">e</tspan><tspan class="cls-5" x="113.4" y="0">n</tspan><tspan class="cls-6" x="140.95" y="0">t</tspan></text><text class="cls-15" transform="translate(377.04 1151)">55.0</text><text class="cls-15" transform="translate(351.39 887)">110.0</text><text class="cls-15" transform="translate(377.04 368)">55.0</text><text class="cls-15" transform="translate(351.39 105)">110.0</text><text class="cls-15" transform="translate(354.33 630)">M<tspan class="cls-16" x="40.2" y="0">W</tspan><tspan x="82.25" y="0">h</tspan></text><text class="cls-15" transform="translate(144.93 330)"><tspan class="cls-17">A<tspan class="cls-18" x="30.45" y="0">nnual</tspan></tspan><tspan class="cls-19" x="-135.2" y="60">C</tspan><tspan x="-106.75" y="60">onsumption</tspan></text><text class="cls-15" transform="translate(144.93 860)"><tspan class="cls-17">A<tspan class="cls-18" x="30.45" y="0">nnual</tspan></tspan><tspan class="cls-20" x="9.45" y="60">S</tspan><tspan class="cls-21" x="34.25" y="60">a</tspan><tspan x="57.95" y="60">ving</tspan></text><text class="cls-22" transform="translate(1668.5 1415)">19.2 t</text><text class="cls-23" transform="translate(1208.5 1415)">19.2 t</text><text class="cls-24" transform="translate(698.5 1415)">19.2 t</text><path class="cls-10" d="M462.62,1445.24H444.56a3.82,3.82,0,0,1-3.5-2.31,3.78,3.78,0,0,1,.8-4.13l13.52-13.73a3.93,3.93,0,0,0,.67-2.15,3.84,3.84,0,0,0-5-3.66,3.92,3.92,0,0,0-2.69,3.74,3.78,3.78,0,0,1-4.16,3.7,4,4,0,0,1-3.42-4.06,11.41,11.41,0,1,1,20.51,7.19c-.09.13-.21.25-.3.38l-7.37,7.5h8.88a3.85,3.85,0,0,1,3.77,2.85A3.76,3.76,0,0,1,462.62,1445.24Z"/><path class="cls-10" d="M417.84,1436.83a21.57,21.57,0,1,1,21.57-21.57A21.58,21.58,0,0,1,417.84,1436.83Zm0-34.38a12.82,12.82,0,1,0,12.82,12.81A12.82,12.82,0,0,0,417.84,1402.45Z"/><path class="cls-10" d="M377.77,1436a21.15,21.15,0,1,1,17-33.71,4.37,4.37,0,0,1-7,5.19,12.27,12.27,0,0,0-10-5,12.4,12.4,0,1,0,0,24.79,12.61,12.61,0,0,0,9.13-4,4.39,4.39,0,0,1,6.45,6A21.36,21.36,0,0,1,377.77,1436Z"/><path class="cls-10" d="M461.19,1473.3H362.34c-28.27,0-52-22-53.28-50.27-1.1-23.71,13.58-45,35.29-52.21a69.61,69.61,0,0,1,134.3.42A52.2,52.2,0,0,1,514,1421C514,1449.81,490.42,1473.3,461.19,1473.3ZM411.48,1337A52.32,52.32,0,0,0,360,1379.74a8.38,8.38,0,0,1-6.53,7c-16.38,4-27.82,18.31-27.47,35.23.41,19.26,17,35,36.25,35h98.5c18.85,0,34.83-14.41,36.15-33.2a35.11,35.11,0,0,0-27.39-37c-3.47-.88-5.65-3.48-6.53-7A52.41,52.41,0,0,0,411.48,1337Z"/></svg>