<svg version="1.1" id="Capa_1" xmlns="http://www.w3.org/2000/svg" xmlns:xlink="http://www.w3.org/1999/xlink" x="0px" y="0px"
	 viewBox="0 0 512 513" style="enable-background:new 0 0 512 513;" xml:space="preserve">
<style type="text/css">
</style>
<path d="M353,304l-25-14l21-12c3-2,4-6,2-9c-2.1-2.8-5.9-3.7-9-2l-28,16l-44-26l44-25l28,16h3c2.3-0.1,4.5-1.2,6-3c2-3,1-8-2-9
	l-21-12l25-14c2.8-2.1,3.7-5.9,2-9c-2.1-2.8-5.9-3.7-9-2l-25,14v-27c0-3.9-3.1-7-7-7s-7,3.1-7,7v33l-44,25v-52l28-16
	c3.2-1.8,4.5-5.7,3-9c-2.1-2.8-5.9-3.7-9-2l-21,12v-28c0-3.9-3.1-7-7-7s-7,3.1-7,7v28l-22-12c-3.1-1.7-6.9-0.8-9,2
	c-1.5,3.3-0.2,7.2,3,9l28,16v51l-45-26v-31c0-4-3-7-7-7l0,0c-3.9,0-7,3.1-7,7v24l-24-14c-3.1-1.7-6.9-0.8-9,2c-1.7,3.1-0.8,6.9,2,9
	l24,14l-21,13c-3,2-4,6-2,9c1.2,2.1,3.6,3.3,6,3h4l28-17l45,26l-45,26l-28-17c-3-2-8-1-9,2c-1.7,3.1-0.8,6.9,2,9l21,13l-24,14
	c-2.8,2.1-3.7,5.9-2,9c1.2,2.1,3.6,3.3,6,3h3l24-14v24c0,3.9,3.1,7,7,7l0,0c3.9,0,7-3.1,7-7v-30l45-26v51l-28,16
	c-3.2,1.8-4.5,5.7-3,9c1.2,2.1,3.6,3.3,6,3h3l22-12v29c0,3.9,3.1,7,7,7s7-3.1,7-7v-29l21,12h3c2.4,0.3,4.8-0.9,6-3
	c1.5-3.3,0.2-7.2-3-9l-28-16v-51l44,25v33c0,3.9,3.1,7,7,7s7-3.1,7-7v-25l25,15h4c2.4,0.3,4.8-0.9,6-3
	C358.4,309.4,356.6,305.4,353,304z"/>
<line class="st0" x1="256" y1="2" x2="256" y2="36"/>
<line class="st0" x1="256" y1="42" x2="256" y2="86"/>
<line class="st0" x1="256" y1="92" x2="256" y2="136"/>
<line class="st0" x1="256" y1="379" x2="256" y2="413"/>
<line class="st0" x1="256" y1="419" x2="256" y2="463"/>
<line class="st0" x1="256" y1="469" x2="256" y2="513"/>
<line class="st0" x1="10" y1="255" x2="44" y2="255"/>
<line class="st0" x1="50" y1="255" x2="94" y2="255"/>
<line class="st0" x1="100" y1="255" x2="144" y2="255"/>
<line class="st0" x1="369" y1="255" x2="403" y2="255"/>
<line class="st0" x1="409" y1="255" x2="453" y2="255"/>
<line class="st0" x1="459" y1="255" x2="503" y2="255"/>
<path d="M200,143L200,143V40l0,0c-3-13-33-23-68-23s-66,8-69,22l0,0v19H43v3l0,0v8H29v3l0,0v95h4V73h10v87h4V73h16v69l0,0
	c3,13,32,23,68,23S197,157,200,143z M48,68v-6h15v6H48z M176,61v8l-13,3v-7L176,61z M162,76l13-3v6l-13,3V76L162,76z M162,87l13-3v6
	l-13,3V87L162,87z M162,98l13-3v6l-13,3V98L162,98z M162,109l13-3v6l-13,3V109L162,109z M162,120l13-3v6l-13,3V120L162,120z
	 M162,131l13-3v6l-13,3V131L162,131z M162,142l13-3v6l-13,3V142z M162,153l13-3v6l-13,3v-7V153z M195,143L195,143c-1,4-6,8-15,12V60
	c5.5-1.7,10.5-4.4,15-8v89l0,0V143z M69,41L69,41c2-9,27-20,63-20s62,10,63,20l0,0c0,10-26,21-63,21S68,52,68,42h1V41z M69,142
	L69,142V52c9,9,31,16,63,16l26-2v93l-26,2c-36,0-62-10-63-20V142z"/>
<path d="M101,48v7h11v-7c5-1,9-3,9-6s-8-7-15-7s-15,2-15,7S96,48,101,48z M108,51h-3v-2h3v3V51z M107,39c7,0,10,2,11,3s-3,2-7,2h-6
	c-5,0-7-2-7-2s4-2,11-2l0,0L107,39z"/>
<path d="M127,37v7h11v-7c5-1,9-3,9-6s-8-7-15-7s-15,2-15,7S121,37,127,37z M134,40h-3v-2h3v3V40z M133,28c7,0,10,2,11,3s-3,2-7,2h-6
	c-5,0-7-2-7-2s4-2,10-2l0,0L133,28z"/>
<path class="st1" d="M371,49"/>
<path class="st2" d="M371,49"/>
<path class="st3" d="M307,113c-7,0-10-12-10-24s3-24,10-24s10,12,10,24S314,113,307,113z M307,71c-1,1-4,7-4,18s3,18,4,18s4-7,4-18
	S308,72,307,71z"/>
<path class="st1" d="M411,100"/>
<path class="st1" d="M392,67"/>
<path class="st3" d="M478,47h-26c-8-17-21-26-35-26h-48c-14,0-27,10-35,26h-28c-11,1-17,22-17,42s6,42,18,42h27c8,16,21,26,35,26h48
	c14,0,27-10,35-26h24c0,0,14-9,14-43S478,47,478,47z M417,26c12,0,24,9,31,25h-41c-5-11-12-20-20-25H417z M449,56l-8,8l-45,2l10-10
	H449z M370,26c13,0,25,10,32,27l-10,9c-5-10-14-16-23-16h-28C348,33,358,26,370,26z M294,89c0-23,8-37,13-37s12,14,12,37
	s-7,36-12,36S294,112,294,89z M341,130h29c12,0,22-10,26-26h12c-4,28-20,48-38,48s-22-8-29-21V130z M418,150h-31c13-9,23-26,26-49
	h42c-3,29-19,50-38,50L418,150z M476,124h-21c3.4-8.6,5.4-17.7,6-27v-1h-47l-23,2v2c-3,14-12,24-21,24h-54c6-8,9-22,9-37s-3-29-9-37
	h54c8,0,15,6,19,16l2,4l53-2l13-14l0,0l-2-4h20c2,2,10,9,10,37s-8,37-10,39L476,124z"/>
<ellipse class="st4" cx="123" cy="383" rx="3" ry="8"/>
<ellipse class="st4" cx="123" cy="436" rx="3" ry="8"/>
<ellipse class="st4" cx="95" cy="466" rx="3" ry="8"/>
<ellipse class="st4" cx="95" cy="357" rx="3" ry="8"/>
<path class="st4" d="M207,368h-15l-4-7c-9-14-21-21-33-21H95c-7,0-15,3-22,8s-11,12-15,20H29c-11,1-17,23-17,43s6,41,17,43h30
	c9,17,22,27,37,27h59c12,0,24-8,33-21l4-6h15c2,0,15-8,15-44S208,368,207,368z M96,374c2,2,15,10,15,39s-13,36-15,37H40
	c6-8,9-23,9-38s-3-30-9-38H96z M18,412c0-24,7-38,12-38l0,0c5,0,12,15,12,38s-6,35-11,37h-3C24,447,18,433,18,412z M98,455
	c2,0,19-7,19-42s-18-44-19-44H64c8-14,20-23,31-23c23,0,42,30,42,66s-16,62-37,66h-4c-12,0-23-8-31-23 M112,477c6-4,12-9,16-17
	s13-31,13-50s-5-36-13-50c-3.8-6.4-8.9-11.8-15-16h3c23,0,42,29,42,66s-19,66-42,66h-4V477z M133,477c6.4-4.1,11.9-9.6,16-16
	c9-13,13-31,13-50s-5-36-13-50c-4-6.5-9.5-12-16-16l0,0c23,0,42,29,42,66S156,477,133,477h-1H133z M154,477h-4
	c6.4-4.1,11.9-9.6,16-16c9-13,13-31,13-50s-5-36-13-50c-4-6.5-9.5-12-16-16h4c23,0,42,29,42,66s-19,66-41,66H154z M204,450h-10
	c5-11,7-25,7-39c0.2-13-2.2-25.9-7-38h11c2,2,11,9,11,38s-9,38-11,39H204z"/>
<path class="st4" d="M40,412c0-12-3-25-10-25s-10,13-10,25s3,25,10,25S40,424,40,412z M25,412c0-12,3-18,5-19s5,7,5,19s-3,20-5,19
	S25,424,25,412z"/>
<path class="st4" d="M449,418v-3c0-5.5-4.5-10-10-10s-10,4.5-10,10v3h-11l-6-6h-2v-17h7c5.5,0,10-4.5,10-10s-4.5-10-10-10h-14v-7h7
	c1.7,0,3-1.3,3-3v-9h20c5.5,0,10-4.5,10-10s-4.5-10-10-10h-85c-5.5,0-10,4.5-10,10s4.5,10,10,10h20v10c0,1.7,1.3,3,3,3h7v7h-14
	c-5.5,0-10,4.5-10,10s4.5,10,10,10h7v16h-2l-6,6h-12v-3c0-5.5-4.5-10-10-10s-10,4.5-10,10v3h-39v46h39v3c0,5.5,4.5,10,10,10
	s10-4.5,10-10v-3h12c12.5,15.4,35.2,17.8,50.6,5.3c0.1-0.1,0.2-0.2,0.4-0.3l5-5h12v3c0,5.5,4.5,10,10,10s10-4.5,10-10v-3h39v-46H449
	z M331,457h-33v-32h33v33V457z M344,467c0,1.9-1.6,3.5-3.5,3.5s-3.5-1.6-3.5-3.5v-52c0-1.7,1.3-3,3-3h2v55H344z M347,349
	c-1.9,0-3.5-1.6-3.5-3.5s1.6-3.5,3.5-3.5h85c1.9,0,3.5,1.6,3.5,3.5s-1.6,3.5-3.5,3.5h-84H347z M373,362v-7h33v7h-32H373z M396,369v7
	h-12v-7h13H396z M363,389c-1.7,0-3-1.3-3-3v-2h55c1.7,0,3,1.3,3,3v2h-54H363z M429,458h-15c-9.4,12.9-27.6,15.8-40.5,6.4
	c-0.2-0.1-0.3-0.2-0.5-0.4l-6-6h-16v-33h16c2.4-3.3,5.5-6,9-8c1.3-0.4,2.1-1.7,2-3v-19h26v18c-0.1,1.3,0.7,2.6,2,3l3,2l6,6h16v33
	L429,458z M442,468c0,1.9-1.6,3.5-3.5,3.5s-3.5-1.6-3.5-3.5v-56h2c1.7,0,3,1.3,3,3v53H442z M481,458h-32v-33h33v33H481z"/>
</svg>
