<svg version="1.1" xmlns="http://www.w3.org/2000/svg" xmlns:xlink="http://www.w3.org/1999/xlink" x="0px" y="0px"
	 viewBox="0 0 508 508" style="enable-background:new 0 0 508 508;" xml:space="preserve">
<rect x="49.2" y="221.2" width="262.2" height="16.4"/>
<rect x="49.2" y="286.8" width="237.6" height="16.4"/>
<rect x="49.2" y="352.3" width="163.9" height="16.4"/>
<rect x="49.2" y="417.9" width="16.4" height="16.4"/>
<rect x="81.9" y="417.9" width="16.4" height="16.4"/>
<rect x="114.7" y="417.9" width="16.4" height="16.4"/>
<path d="M500.8,202.4l-23.2-23.2c-9.3-9.3-25.5-9.3-34.8,0l-82.3,82.3V0H144.1L0,144.1V508h360.5V377.5l140.3-140.3
	C510.4,227.6,510.4,212,500.8,202.4z M139.3,28v111.3H28L139.3,28z M16.4,491.6V155.7h139.3V16.4h188.5V278L221,401.2l-14.5,72.4
	l72.4-14.5l65.2-65.2v97.7L16.4,491.6L16.4,491.6z M233.5,421.8l24.7,24.7l-30.9,6.2L233.5,421.8z M274.9,440l-34.8-34.8L402.3,243
	l34.8,34.8L274.9,440z M448.7,266.2l-34.8-34.8l11.6-11.6l34.8,34.8L448.7,266.2z M489.2,225.6L471.8,243L437,208.2l17.4-17.4
	c3.1-3.1,8.5-3.1,11.6,0l23.2,23.2C492.4,217.2,492.4,222.4,489.2,225.6z"/>
<polygon points="254,90.1 254,41 237.6,41 237.6,90.1 188.5,90.1 188.5,106.5 237.6,106.5 237.6,155.7 254,155.7 254,106.5
	303.2,106.5 303.2,90.1 "/>
</svg>
