<svg id="damage-insulation" xmlns="http://www.w3.org/2000/svg" viewBox="0 0 512 512"><path d="M47,181c-17,0-25,31-25,60s8,60,25,60,25-31,25-60S64,181,47,181Zm0,106c-3-2-11-17-11-46s8-44,11-46,11,17,11,46S50,285,47,287Z" transform="translate(0 0)" fill="#211915"/><path d="M477,134H442l-9-15c-17-26-39-43-62-49H322L304,94l-8,30-14,10H270v-4l-5-2c-14-4-32-15-35-22h0L214,67H137c-12,1-24,8-35,20s-20,28-28,48H44C17,138,2,190,2,239S17,339,43,344H75c15,40,38,64,63,66H353c31,0,59-18,81-51l8-14h35c4-2,35-18,35-105S478,135,477,134Zm-170-3,9-32,13-18h34l-12,25,8,28H303Zm-39,16h95l-17,40-37,45H281l-21-35ZM48,330H46c-13-2-29-36-29-91s18-91,30-91,30,34,30,91S61,328,48,330Zm22,0c14-19,21-56,21-91s-7-72-22-91h45c5,4,37,27,37,93s-32,85-36,89H70Zm72,66c-21,0-40-19-54-52h33c4-2,46-15,46-102s-44-105-45-106H87c14-34,34-54,55-54,41,0,73,71,73,158S183,396,142,396Zm211,0H176c10-9,19-21,27-38,15-32,24-75,24-120s-9-88-24-120c-8-16-17-29-27-38h30l13,31c4,13,26,23,38,28l-10,60,27,45,41,2,43-52,20-46-12-41,11-23c43,17,76,79,76,153C452,325,407,396,353,396Zm119-65H448c12-27,18-59,18-93s-6-64-17-91h22c5,4,26,26,26,92S476,327,471,331Z" transform="translate(0 0)" fill="#211915"/></svg>
