<svg id="damage-cladding" xmlns="http://www.w3.org/2000/svg" viewBox="0 0 512 512"><path d="M47,181c-17,0-25,31-25,60s8,60,25,60,25-31,25-60S64,181,47,181Zm0,106c-3-2-11-17-11-46s8-44,11-46,11,17,11,46S50,285,47,287Z" transform="translate(-1 -1)" fill="#211915"/><path d="M478,134H443l-9-15c-17-27-39-44-64-50h0L343,87l-35-9-23,34-13,4L248,89,213,67H137c-12,1-24,8-35,20s-20,28-28,48H44C17,138,2,190,2,239S17,339,43,344H75c15,40,38,64,63,66h70l23-17,41,8,22-34,13-4,24,28,33,20h1c26-4,51-22,69-51l8-14h35c4-2,35-18,35-105S479,135,478,134ZM48,330H46c-13-2-29-36-29-91s18-91,30-91,30,34,30,91S61,328,48,330Zm22,0c14-19,21-56,21-91s-7-72-22-91h45c5,4,37,27,37,93s-32,85-36,89H70Zm72,66c-21,0-40-19-54-52h33c4-2,46-15,46-102s-44-105-45-106H87c14-34,34-54,55-54,41,0,73,71,73,158S183,396,142,396Zm224-1-26-15-28-33-26,9-20,31-38-7-24,18H176c10-9,19-21,27-38,15-32,24-75,24-120s-9-88-24-120c-8-16-17-29-27-38h35l29,18,28,33,26-9,20-30,32,8,27-18c46,14,81,78,81,155S415,385,366,394Zm107-64H449c12-27,18-59,18-93s-6-64-17-91h22c5,4,26,26,26,92S477,327,472,331Z" transform="translate(-1 -1)" fill="#211915"/></svg>
