<?xml version="1.0" encoding="utf-8"?>
<!-- Generator: Adobe Illustrator 22.0.1, SVG Export Plug-In . SVG Version: 6.00 Build 0)  -->
<svg version="1.1" id="Capa_1" xmlns="http://www.w3.org/2000/svg" xmlns:xlink="http://www.w3.org/1999/xlink" x="0px" y="0px"
	 viewBox="0 0 58 58" style="enable-background:new 0 0 58 58;" xml:space="preserve">
<style type="text/css">
	.st0{display:none;}
</style>
<path d="M47.2,29.5L47.2,29.5L32.8,44v-9.1c0-0.4-0.2-0.9-0.5-1.2c-0.3-0.3-0.7-0.5-1.2-0.5h-1.4c-0.5,0-0.9,0.2-1.2,0.5
	C28.2,34,28,34.4,28,34.9v15.6c0,0.9,0.7,1.7,1.7,1.7c0,0,0,0,0,0h15.6c0.9,0,1.7-0.7,1.7-1.6c0,0,0,0,0-0.1V49
	c0-0.4-0.2-0.9-0.5-1.2c-0.3-0.3-0.7-0.5-1.2-0.5h-9.2l14.5-14.5c0.7-0.7,0.7-1.7,0-2.4l-1-1C48.9,28.8,47.9,28.8,47.2,29.5
	C47.2,29.5,47.2,29.5,47.2,29.5z"/>
<path d="M11.8,29.8L11.8,29.8l14.4-14.5v9.1c0,0.9,0.7,1.7,1.7,1.7h1.4c0.4,0,0.9-0.2,1.2-0.5c0.3-0.3,0.5-0.7,0.5-1.2V8.8
	c0-0.4-0.2-0.9-0.5-1.2c-0.3-0.3-0.7-0.5-1.2-0.5H13.7c-0.9,0-1.7,0.7-1.7,1.7l0,0v1.5c0,0.4,0.2,0.9,0.5,1.2
	c0.3,0.3,0.7,0.5,1.2,0.5h9.2L8.4,26.4c-0.7,0.7-0.7,1.7,0,2.4l1,1C10.1,30.4,11.1,30.4,11.8,29.8z"/>
<path class="st0" d="M53.4,0H4.6C2.1,0,0,2.1,0,4.6v48.7C0,55.9,2.1,58,4.6,58h48.7c2.6,0,4.6-2.1,4.6-4.6V4.6C58,2.1,55.9,0,53.4,0
	z M56.6,52c0,2.6-2.1,4.6-4.6,4.6H6c-2.6,0-4.6-2.1-4.6-4.6V6c0-2.6,2.1-4.6,4.6-4.6h46c2.6,0,4.6,2.1,4.6,4.6V52z"/>
</svg>
