<svg id="Capa_1" data-name="Capa 1" xmlns="http://www.w3.org/2000/svg" viewBox="0 0 512 512"><title>electrical</title><path d="M32,188a110,110,0,0,0,116,25L299,364A110,110,0,0,0,402,512h0a111,111,0,0,0,46-10,10,10,0,0,0,3-16l-40-40,3-33,33-3,40,40a10,10,0,0,0,16-3,110,110,0,0,0-22-123,110,110,0,0,0-116-25L213,148A110,110,0,0,0,110,0h0A111,111,0,0,0,64,10a10,10,0,0,0-3,16l40,40L98,99l-33,3L26,61a10,10,0,0,0-16,3A110,110,0,0,0,32,188Zm76-70a10,10,0,0,0,9-9l4-46a10,10,0,0,0-3-8L86,23a91,91,0,0,1,24-3,90,90,0,0,1,82,126,10,10,0,0,0,2,11L355,318a10,10,0,0,0,11,2A90,90,0,0,1,489,426l-32-32a10,10,0,0,0-8-3l-46,4a10,10,0,0,0-9,9l-4,46a10,10,0,0,0,3,8l32,32a91,91,0,0,1-24,3,90,90,0,0,1-82-126,10,10,0,0,0-2-11L157,194a10,10,0,0,0-11-2A90,90,0,0,1,23,86l32,32a10,10,0,0,0,8,3" fill="#050206"/><path d="M108,389h40a9,9,0,0,0,7-4,8,8,0,0,0,0-8L89,247h0a8,8,0,0,0-7-4H12a8,8,0,0,0-7,4,7,7,0,0,0,0,8l48,76H8a8,8,0,0,0-7,5,8,8,0,0,0,1,8H2L142,509h0l6,2h4c3-2,4-6,3-9ZM25,346H68a8,8,0,0,0,7-4,7,7,0,0,0,0-8L27,258H78l58,116H96a9,9,0,0,0-6,3h0a8,8,0,0,0-1,7l32,75Z" fill="#010002"/><path d="M387,70a11,11,0,0,0-11,11v53a68,68,0,0,0,57,67c2,36,43,69,80,69V245c-24,0-55-20-57-43a68,68,0,0,0,57-67V81a11,11,0,0,0-11-11H490V11a11,11,0,1,0-23,0V70H420V11a11,11,0,1,0-23,0V70H387Zm12,64V93h91v41a45,45,0,0,1-45,45h0a45,45,0,0,1-45-45h0Z" fill="#030104"/></svg>