<?xml version="1.0" encoding="utf-8"?>
<!-- Generator: Adobe Illustrator 22.0.1, SVG Export Plug-In . SVG Version: 6.00 Build 0)  -->
<svg version="1.1" id="Capa_1" xmlns="http://www.w3.org/2000/svg" xmlns:xlink="http://www.w3.org/1999/xlink" x="0px" y="0px"
	 viewBox="0 0 58 58" style="enable-background:new 0 0 58 58;" xml:space="preserve">
<g>
	<path d="M50.7,37.2V14c0-0.8-0.1-1.3-0.6-1.8l-0.8-0.8L39.2,1.3l-0.8-0.8C38.1,0.2,37.6,0,37.1,0h-29C6.9,0,5.7,0.9,5.7,2.9V39
		v16.5V56c0,0.8,0.8,1.7,1.8,1.9c0.1,0,0.1,0,0.1,0c0.2,0,0.3,0,0.5,0h40.1c0.2,0,0.3,0,0.5,0c0.1,0,0.1,0,0.2,0
		c0.2-0.1,0.3-0.1,0.5-0.2c4.9-0.9,8.6-5.3,8.6-10.4C58,42.6,54.9,38.6,50.7,37.2z M38.7,3.6l8.4,8.4h-8.4V3.6z M8.1,55.9L8.1,55.9
		C8,56,8,56,7.9,56c-0.2-0.1-0.3-0.2-0.3-0.4L7.7,2.9c0-0.2,0-0.9,0.5-0.9h28.6c0,0.1-0.1,0.3-0.1,0.4V14h11.6c0.1,0,0.3,0,0.4-0.1
		l-0.1,22.8c-0.4,0-0.8-0.1-1.3-0.1c-1,0-1.9,0.1-2.8,0.4V23.3c0-1.5-1.2-2.7-2.7-2.7h-4.8L34.8,15H20.6l-2.2,5.6h-0.7v-2.8h-3.4
		v2.8h-0.7c-1.5,0-2.7,1.2-2.7,2.7v16.5c0,1.5,1.2,2.7,2.7,2.7h24.3c-0.7,1.4-1.1,3-1.1,4.7c0,3.6,1.8,6.7,4.4,8.6H8.1z M17.6,21.7
		h1.5l2.2-5.6h12.7l2.2,5.6h5.6c0.9,0,1.6,0.7,1.6,1.6c0,0,0,10.6,0,14.1c-2,0.8-3.7,2.2-4.9,4h-25c-0.9,0-1.6-0.7-1.6-1.6V23.3
		c0-0.9,0.7-1.6,1.6-1.6h0.7H17.6z M15.3,20.6v-1.7h1.1v1.7H15.3z M52.5,48.1h-4.3v4.5c0,0.5-0.4,0.8-0.8,0.8
		c-0.5,0-0.8-0.4-0.8-0.8v-4.5h-4.3c-0.5,0-0.8-0.4-0.8-0.8c0-0.5,0.4-0.8,0.8-0.8h4.3v-4.1c0-0.5,0.4-0.8,0.8-0.8
		c0.5,0,0.8,0.4,0.8,0.8v4.1h4.3c0.5,0,0.8,0.4,0.8,0.8C53.3,47.7,52.9,48.1,52.5,48.1z"/>
	<path d="M27.7,40.3c5.6,0,10.1-4.5,10.1-10.1c0-5.6-4.5-10.1-10.1-10.1c-5.6,0-10.1,4.5-10.1,10.1C17.6,35.8,22.1,40.3,27.7,40.3z
		 M27.7,21.2c5,0,9,4,9,9c0,5-4,9-9,9c-5,0-9-4-9-9C18.7,25.2,22.7,21.2,27.7,21.2z"/>
	<path d="M27.7,36.9c3.7,0,6.7-3,6.7-6.7s-3-6.7-6.7-6.7c-3.7,0-6.7,3-6.7,6.7S24,36.9,27.7,36.9z M27.7,24.6c3.1,0,5.6,2.5,5.6,5.6
		s-2.5,5.6-5.6,5.6c-3.1,0-5.6-2.5-5.6-5.6S24.6,24.6,27.7,24.6z"/>
	<path d="M40.1,27.4c1.2,0,2.2-1,2.2-2.2s-1-2.2-2.2-2.2s-2.2,1-2.2,2.2S38.8,27.4,40.1,27.4z M40.1,24c0.6,0,1.1,0.5,1.1,1.1
		s-0.5,1.1-1.1,1.1s-1.1-0.5-1.1-1.1S39.4,24,40.1,24z"/>
</g>
</svg>
