<svg xml:space="preserve" xmlns:xlink="http://www.w3.org/1999/xlink" id="Layer_1" style="enable-background:new 0 0 512.001 512.001;" version="1.1" viewBox="0 0 512.001 512.001" x="0px" xmlns="http://www.w3.org/2000/svg" y="0px">
            <path d="M499.058,2.53c-2.49-2.074-5.775-2.937-8.965-2.349L320.791,31.31c-5.184,0.954-8.947,5.472-8.947,10.742v3.55h-52.976
                   v-9.648c0-12.748-10.371-23.12-23.12-23.12h-46.604c-6.308,0-12.029,2.545-16.205,6.656c-7.69-6.743-17.752-10.843-28.759-10.843
                   c-24.091,0-43.691,19.6-43.691,43.691c0,10.146,3.487,19.488,9.312,26.912c-46.71,14.423-80.746,58.003-80.746,109.385v24.749
                   h-9.12c-6.033,0-10.923,4.89-10.923,10.923v98.304c0,6.033,4.89,10.923,10.923,10.923h43.691c6.033,0,10.923-4.89,10.923-10.923
                   v-98.304c0-6.033-4.89-10.923-10.923-10.923H50.901v-24.749c0-51.063,41.543-92.607,92.606-92.607l0.016-0.016
                   c0.22,0.003,0.437,0.016,0.656,0.016c7.955,0,15.414-2.147,21.845-5.878v32.034c-38.002,2.132-68.267,33.714-68.267,72.239
                   v283.989c0,18.521,15.067,33.587,33.587,33.587h162.202c18.52,0,33.587-15.067,33.587-33.587v-283.99
                   c0-38.525-30.265-70.107-68.267-72.239v-11.046h52.975v3.55c0,5.27,3.763,9.789,8.947,10.742l169.301,31.13
                   c0.658,0.121,1.318,0.18,1.976,0.18c2.533,0,5.012-0.883,6.989-2.53c2.491-2.075,3.933-5.15,3.933-8.393V10.923
                   C502.99,7.681,501.549,4.605,499.058,2.53z M52.703,235.23v76.459H30.858V235.23H52.703z M189.146,34.68h46.604
                   c0.703,0,1.275,0.571,1.275,1.275v86.107h-49.152V35.955h-0.001C187.871,35.252,188.442,34.68,189.146,34.68z M144.18,74.184
                   c-12.046,0-21.845-9.8-21.845-21.845s9.8-21.845,21.845-21.845s21.845,9.8,21.845,21.845S156.226,74.184,144.18,74.184z
                    M305.29,478.413c0,6.475-5.267,11.742-11.742,11.742H131.346c-6.475,0-11.742-5.267-11.742-11.742v-18.842H305.29V478.413z
                    M305.29,295.185h-48.06c-6.031,0-10.923,4.89-10.923,10.923s4.891,10.923,10.923,10.923h48.06v20.871h-90.112
                   c-6.033,0-10.923,4.89-10.923,10.923s4.89,10.923,10.923,10.923h90.112v77.979H119.604V224.734H305.29V295.185z M305.29,194.424
                   v8.465H119.604v-8.465c0-27.855,22.662-50.517,50.517-50.517h84.651C282.628,143.906,305.29,166.569,305.29,194.424z
                    M311.843,89.293h-52.975V67.448h52.975V89.293z M481.145,132.704l-147.456-27.113V51.15l147.456-27.113V132.704z"></path>
            <path d="M214.086,317.031h1.092c6.033,0,10.923-4.89,10.923-10.923s-4.89-10.923-10.923-10.923h-1.092
                   c-6.033,0-10.923,4.89-10.923,10.923S208.053,317.031,214.086,317.031z"></path>
          </svg>
