<svg version="1.1" id="flange" xmlns="http://www.w3.org/2000/svg" xmlns:xlink="http://www.w3.org/1999/xlink" x="0px" y="0px"
	 viewBox="0 0 512 512" style="enable-background:new 0 0 512 512;" xml:space="preserve">
<ellipse cx="280" cy="251" rx="8" ry="19"/>
<ellipse cx="244" cy="147" rx="8" ry="19"/>
<ellipse cx="244" cy="365" rx="8" ry="19"/>
<path d="M48,200c-17,0-25,31-25,60s8,60,25,60s25-31,25-60S65,200,48,200z M48,306c-3-2-11-17-11-46s8-44,11-46s11,17,11,46
	S51,308,48,306z"/>
<path d="M477,152h-33.4c0.6,2.4,1.4,4.9,2.3,7.3C428.7,119.5,400.3,86,357,86H205c-18,0-37,8-52,20s-27,28-37,48H45
	c-27,2-42,54-42,104s15,99,41,104h74c21,41,54,65,88,65h160c25.2,0,59.5-21.2,81.2-64H475c0,0,36-22,36-107S478,153,477,152z
	 M52,350h-8c-11-7-26-40-26-91c0-57,17-91,30-91s30,35,30,92S63,344,52,350z M71,349c14-19,22-56,22-91s-8-72-22-91h135
	c6,5,37,23,37,93s-31,86-36,89H71z M206,416c-28,1-55-19-74-53h24v1c0,11,4,19,8,19s8-9,8-19c0-0.4,0-0.7,0-1h38v-2h1
	c4-1,46-17,46-102s-44-105-45-106h-40c0.1-2,0.1-4,0-6c0-10-4-19-8-19s-8,9-8,19c-0.1,2-0.1,4,0,6h-26c19-34,47-55,76-55
	c55,0,100,72,100,160s-39,149-89,158H206z M285,376c21-32,32-75,32-120s-11-87-32-120c-11-17-23-29-37-38h68.6
	c7.1,5.2,20.8,16.5,34.6,34.2c18.2,23.4,40,63,40.3,118.8c0.4,67-20.1,108.8-37.4,132c-14.1,19-28.4,29.1-34.6,32.9H246
	C261,407,274,393,285,376z M357,416h-20.3c7.3-5.9,16.2-14.5,25.1-26.4C380.2,365,402,321.1,401.6,251
	c-0.4-58.6-23.3-100.2-42.4-124.9c-9.5-12.3-19-21.6-26.5-28.1h30c46.4,0,89,69,94.4,159C462.2,344.8,412,416,357,416z M471,350
	h-17.9c10.1-24.9,16.2-55.9,14.9-93c-0.9-24.6-6.8-59.9-19.7-92.1c0.2,0.4,0.3,0.7,0.5,1.1H471c5,5,26,22,26,92S476,347,471,350z"/>
</svg>
