<?xml version="1.0" encoding="utf-8"?>
<!-- Generator: Adobe Illustrator 22.0.1, SVG Export Plug-In . SVG Version: 6.00 Build 0)  -->
<svg version="1.1" id="Layer_1" xmlns="http://www.w3.org/2000/svg" xmlns:xlink="http://www.w3.org/1999/xlink" x="0px" y="0px"
	 viewBox="0 0 512 512" style="enable-background:new 0 0 512 512;" xml:space="preserve">
<path d="M384,64V32c0-17.7-14.3-32-32-32H160c-17.7,0-32,14.3-32,32v32H384z"/>
<path d="M128.5,96c2.5,36.4,14,68,38.9,88.2c15,12.3,24.5,30,24.5,49.4V480c0,17.7,14.3,32,32,32h64c17.7,0,32-14.3,32-32V227.7
	c0-20.1,10.4-38.2,26.2-50.7c23.7-18.7,34.8-46.4,37.3-81L128.5,96L128.5,96z M256,288c-17.7,0-32-14.3-32-32c0-17.7,14.3-32,32-32
	c17.7,0,32,14.3,32,32C288,273.7,273.7,288,256,288z"/>
</svg>
