<svg version="1.1" id="hot-surface" xmlns="http://www.w3.org/2000/svg" xmlns:xlink="http://www.w3.org/1999/xlink" x="0px"
	 y="0px" viewBox="0 0 512 512" style="enable-background:new 0 0 512 512;" xml:space="preserve">
<path d="M313.6,186.1l-45.2,63.3c0,0-129.5,9-134,21.1c-4.5,12,3,12,4.5,12c1.5,0,31.6-7.5,16.6,3c-5.1,3.6-34.6,12-39.2,19.6
	c0,0-7.5,15.1,9,13.6s45.2-19.6,45.2-19.6l-40.7,42.2c0,0-4.5,19.6,13.6,10.5s82.8-69.3,117.5-57.2c11.7,4.1,9,13.6,9,13.6
	l-24.1,40.7c0,0-6,19.6,19.6,12l79.8-131L313.6,186.1z"/>
<path d="M253.1,21L0,465.3h510.9L253.1,21z M253.6,57.8L476.7,447H31.1L253.6,57.8z"/>
<path d="M186,376c2.9-1.9,4.6-5.1,4.7-8.5c0-1.9-1.6-3.5-3.5-3.5s-3.5,1.6-3.5,3.5c0,1.2-0.5,1.7-2.2,3.1c-2.9,1.9-4.6,5.1-4.7,8.5
	c0.1,3.4,1.9,6.6,4.7,8.5c1.7,1.4,2.2,2,2.2,3.1c0,1.1-0.4,1.6-2.2,3.1c-2.9,1.9-4.6,5.1-4.7,8.5c0,1.9,1.6,3.5,3.5,3.5
	s3.5-1.6,3.5-3.5c0-1.1,0.4-1.6,2.2-3.1c2.9-1.9,4.6-5.1,4.7-8.5c-0.1-3.4-1.9-6.6-4.7-8.5c-1.7-1.4-2.2-2-2.2-3.1
	S184.3,377.4,186,376z"/>
<path d="M203.4,376c2.9-1.9,4.6-5.1,4.7-8.5c0-1.9-1.6-3.5-3.5-3.5c-1.9,0-3.5,1.6-3.5,3.5c0,1.2-0.5,1.7-2.2,3.1
	c-2.9,1.9-4.6,5.1-4.7,8.5c0.1,3.4,1.9,6.6,4.7,8.5c1.7,1.4,2.2,2,2.2,3.1c0,1.1-0.4,1.6-2.2,3.1c-2.9,1.9-4.6,5.1-4.7,8.5
	c0,1.9,1.6,3.5,3.5,3.5s3.5-1.6,3.5-3.5c0-1.1,0.4-1.6,2.2-3.1c2.9-1.9,4.6-5.1,4.7-8.5c-0.1-3.4-1.9-6.6-4.7-8.5
	c-1.7-1.4-2.2-2-2.2-3.1S201.7,377.4,203.4,376z"/>
<path d="M147.6,376c2.9-1.9,4.6-5.1,4.7-8.5c0-1.9-1.6-3.5-3.5-3.5s-3.5,1.6-3.5,3.5c0,1.2-0.5,1.7-2.2,3.1
	c-2.9,1.9-4.6,5.1-4.7,8.5c0.1,3.4,1.9,6.6,4.7,8.5c1.7,1.4,2.2,2,2.2,3.1c0,1.1-0.4,1.6-2.2,3.1c-2.9,1.9-4.6,5.1-4.7,8.5
	c0,1.9,1.6,3.5,3.5,3.5s3.5-1.6,3.5-3.5c0-1.1,0.4-1.6,2.2-3.1c2.9-1.9,4.6-5.1,4.7-8.5c-0.1-3.4-1.9-6.6-4.7-8.5
	c-1.7-1.4-2.2-2-2.2-3.1S146,377.4,147.6,376z"/>
<path d="M165.1,376c2.9-1.9,4.6-5.1,4.7-8.5c0-1.9-1.6-3.5-3.5-3.5s-3.5,1.6-3.5,3.5c0,1.2-0.5,1.7-2.2,3.1
	c-2.9,1.9-4.6,5.1-4.7,8.5c0.1,3.4,1.9,6.6,4.7,8.5c1.7,1.4,2.2,2,2.2,3.1c0,1.1-0.4,1.6-2.2,3.1c-2.9,1.9-4.6,5.1-4.7,8.5
	c0,1.9,1.6,3.5,3.5,3.5s3.5-1.6,3.5-3.5c0-1.1,0.4-1.6,2.2-3.1c2.9-1.9,4.6-5.1,4.7-8.5c-0.1-3.4-1.9-6.6-4.7-8.5
	c-1.7-1.4-2.2-2-2.2-3.1S163.4,377.4,165.1,376z"/>
<path d="M260,376c2.9-1.9,4.6-5.1,4.7-8.5c0-1.9-1.6-3.5-3.5-3.5c-1.9,0-3.5,1.6-3.5,3.5c0,1.2-0.5,1.7-2.2,3.1
	c-2.9,1.9-4.6,5.1-4.7,8.5c0.1,3.4,1.9,6.6,4.7,8.5c1.7,1.4,2.2,2,2.2,3.1c0,1.1-0.4,1.6-2.2,3.1c-2.9,1.9-4.6,5.1-4.7,8.5
	c0,1.9,1.6,3.5,3.5,3.5s3.5-1.6,3.5-3.5c0-1.1,0.4-1.6,2.2-3.1c2.9-1.9,4.6-5.1,4.7-8.5c-0.1-3.4-1.9-6.6-4.7-8.5
	c-1.7-1.4-2.2-2-2.2-3.1S258.3,377.4,260,376z"/>
<path d="M277.4,376c2.9-1.9,4.6-5.1,4.7-8.5c0-1.9-1.6-3.5-3.5-3.5c-1.9,0-3.5,1.6-3.5,3.5c0,1.2-0.5,1.7-2.2,3.1
	c-2.9,1.9-4.6,5.1-4.7,8.5c0.1,3.4,1.9,6.6,4.7,8.5c1.7,1.4,2.2,2,2.2,3.1c0,1.1-0.4,1.6-2.2,3.1c-2.9,1.9-4.6,5.1-4.7,8.5
	c0,1.9,1.6,3.5,3.5,3.5c1.9,0,3.5-1.6,3.5-3.5c0-1.1,0.4-1.6,2.2-3.1c2.9-1.9,4.6-5.1,4.7-8.5c-0.1-3.4-1.9-6.6-4.7-8.5
	c-1.7-1.4-2.2-2-2.2-3.1S275.7,377.4,277.4,376z"/>
<path d="M221.6,376c2.9-1.9,4.6-5.1,4.7-8.5c0-1.9-1.6-3.5-3.5-3.5s-3.5,1.6-3.5,3.5c0,1.2-0.5,1.7-2.2,3.1
	c-2.9,1.9-4.6,5.1-4.7,8.5c0.1,3.4,1.9,6.6,4.7,8.5c1.7,1.4,2.2,2,2.2,3.1c0,1.1-0.4,1.6-2.2,3.1c-2.9,1.9-4.6,5.1-4.7,8.5
	c0,1.9,1.6,3.5,3.5,3.5s3.5-1.6,3.5-3.5c0-1.1,0.4-1.6,2.2-3.1c2.9-1.9,4.6-5.1,4.7-8.5c-0.1-3.4-1.9-6.6-4.7-8.5
	c-1.7-1.4-2.2-2-2.2-3.1S220,377.4,221.6,376z"/>
<path d="M239.1,376c2.9-1.9,4.6-5.1,4.7-8.5c0-1.9-1.6-3.5-3.5-3.5s-3.5,1.6-3.5,3.5c0,1.2-0.5,1.7-2.2,3.1
	c-2.9,1.9-4.6,5.1-4.7,8.5c0.1,3.4,1.9,6.6,4.7,8.5c1.7,1.4,2.2,2,2.2,3.1c0,1.1-0.4,1.6-2.2,3.1c-2.9,1.9-4.6,5.1-4.7,8.5
	c0,1.9,1.6,3.5,3.5,3.5s3.5-1.6,3.5-3.5c0-1.1,0.4-1.6,2.2-3.1c2.9-1.9,4.6-5.1,4.7-8.5c-0.1-3.4-1.9-6.6-4.7-8.5
	c-1.7-1.4-2.2-2-2.2-3.1S237.4,377.4,239.1,376z"/>
<rect x="109" y="414" width="192" height="19"/>
</svg>
