<svg version="1.1" id="housekeeping" xmlns="http://www.w3.org/2000/svg" xmlns:xlink="http://www.w3.org/1999/xlink" x="0px"
	 y="0px" viewBox="0 0 512 512" style="enable-background:new 0 0 512 512;" xml:space="preserve">
<g>
	<g>
		<path d="M78.6,422.8c-5.5,0-10,4.5-10,10v0.4c0,5.5,4.5,10,10,10c5.5,0,10-4.5,10-10v-0.4C88.6,427.2,84.1,422.8,78.6,422.8z"/>
	</g>
</g>
<g>
	<g>
		<path d="M268.9,422.8c-5.5,0-10,4.5-10,10v0.4c0,5.5,4.5,10,10,10s10-4.5,10-10v-0.4C278.9,427.2,274.5,422.8,268.9,422.8z"/>
	</g>
</g>
<g>
	<g>
		<path d="M481,156.4h-7.7c-2.2-10-7.8-18.9-16.1-25.4c-8.3-6.6-18.5-9.9-28.7-9.7c-6.6-17-23.2-28.9-42.1-28.9
			c-11.2,0-21.7,4.1-29.8,11.3c-8.9-7.1-21.2-11.3-34.1-11.3c-14.4,0-35.9,8.7-46,23.4c-15.4-3.8-31.6-0.8-44.1,8.5
			c-8.4,6.2-14.1,14.6-16.7,24.2V27.4c0-15.1-12.3-27.4-27.4-27.4h-34.5c-15.1,0-27.4,12.3-27.4,27.4v242h-17.2c-5.5,0-10,4.5-10,10
			v42.5H55.3c-14.2,0-20.2,11.3-23.7,18.1l-15.5,29.6c-3,5.6-4.7,15.1,0.1,23c1.3,2.2,3.8,5.2,8,7.4l-12.3,41.9
			c-5.9,17.5-10.7,41.5-0.6,56.8c3.6,5.5,10.7,12.2,24.3,13.3c0.3,0,0.5,0,0.8,0h274.8c0.3,0,0.5,0,0.8,0c4.6-0.4,8.5-1.4,11.7-2.8
			h103.4c15.7,0,28.5-10.6,29.9-24.6L480,247h1c13,0,23.6-10.6,23.6-23.6V180C504.6,167,494,156.4,481,156.4z M244.4,140.4
			c9.1-6.8,22.2-8,33.2-3.1c2.7,1.2,5.7,1.1,8.3-0.1s4.6-3.6,5.4-6.4c2.6-9.3,20.1-18.3,31.3-18.3c10.8,0,21.7,4.9,26,11.6
			c1.8,2.9,5,4.6,8.4,4.6s6.6-1.7,8.4-4.6c4.6-7.2,12.5-11.6,21.1-11.6c12.3,0,23,9.2,24.8,21.4c0.4,2.8,2,5.3,4.3,6.8
			s5.2,2.1,8,1.4c7.5-1.8,15.3-0.1,21.4,4.7c3.3,2.6,5.8,5.9,7.5,9.6H234.5C235.6,150,238.9,144.4,244.4,140.4z M146.5,27.4
			c0-4.1,3.3-7.4,7.4-7.4h34.5c4,0,7.4,3.4,7.4,7.4v242h-49.2V27.4z M119.3,289.4h103.5v32.5H119.3V289.4z M33.8,378.8l15.5-29.6
			c3.5-6.7,4.4-7.4,6-7.4H293c1.7,0,2.6,1,6,7.4l13.6,26c2.1,4,1.9,6,1.6,6.5c-0.3,0.5-1.4,1-2.7,1H311c0,0-0.1,0-0.1,0H36.7
			c-2.3,0-3.2-0.5-3.4-0.6C33.1,381.7,33.2,380.1,33.8,378.8z M319.6,487.6c-1.1,1.6-3.1,3.8-8.8,4.4h-31.4v-27.9
			c0-5.5-4.5-10-10-10s-10,4.5-10,10V492h-75.6v-47.5c0-5.5-4.5-10-10-10c-5.5,0-10,4.5-10,10V492H88.1v-27.9c0-5.5-4.5-10-10-10
			s-10,4.5-10,10V492H36.8c-5.7-0.5-7.8-2.7-8.8-4.4c-4.3-6.5-3.2-21.3,2.9-39.6c0-0.1,0.1-0.2,0.1-0.4l13.2-44.9h259.1l13.2,44.9
			c0,0.1,0.1,0.2,0.1,0.4C322.8,466.3,323.9,481.1,319.6,487.6z M437.1,482.6c-0.3,3.2-4.1,6.5-10,6.5h-86.7
			c4-14.6-0.1-33.1-4.8-47.3l-12.4-42.1c3.3-1.8,6.1-4.4,8-7.6c2.5-4.2,5.8-13.2-1-26.1l-13.6-26c-3.5-6.8-9.5-18.1-23.7-18.1h-50.1
			v-42.5c0-5.5-4.5-10-10-10h-17.2V247h41.2c4.9,37.2,36.8,66,75.3,66c38.5,0,70.4-28.8,75.3-66H460L437.1,482.6z M277.1,247h110.2
			c-4.7,26.1-27.6,46-55.1,46C304.8,293,281.9,273.2,277.1,247z M481,227H215.7v-50.6h8.6c0,0,0,0,0,0c0,0,0,0,0,0H481
			c1.9,0,3.6,1.6,3.6,3.6v43.5h0C484.6,225.4,482.9,227,481,227z"/>
	</g>
</g>
</svg>
