<svg version="1.1" id="ice-wet" xmlns="http://www.w3.org/2000/svg" xmlns:xlink="http://www.w3.org/1999/xlink" x="0px" y="0px"
	 viewBox="0 0 512 512" style="enable-background:new 0 0 512 512;" xml:space="preserve">
<path d="M46,210c-17,0-25,31-25,60s8,60,25,60s25-31,25-60S63,210,46,210z M46,316c-3-2-11-17-11-46s8-44,11-46s11,17,11,46
	S49,318,46,316z"/>
<path d="M234,214l-60-27l-60,27l-8,4l-3,2v88l27,15l42,23l0,0l3,2l3-2l0,0l42-23l27-15v-89l-3-2L234,214z M168,330l-54-30v-68l54,30
	V330z M174,252l-19-10l-34-19l53-24l53,24l-34,19L174,252z M234,300l-54,30v-68l54-30V300z"/>
<path d="M399,250c-3,3-31,33-31,50c0,19.3,15.7,35,35,35s35-15.7,35-35c0-18-28-47-31-50C404.7,248,401.3,248,399,250z M403,324
	c-12.7,0-23-10.3-23-23l0,0c0-9,13-26,23-38c10,12,23,29,23,38C426,313.7,415.7,324,403,324L403,324z"/>
<path d="M440,198L440,198c-3,4-19,22-19,33c0,12.7,10.3,23,23,23s23-10.3,23-23c0-11-16-29-19-33C445.7,196,442.3,196,440,198z
	 M444,243c-6.6,0-12-5.4-12-12c0-4,5-12,12-20c6,8,12,16,12,20C456,237.6,450.6,243,444,243z"/>
<path d="M391,231c0-11-16-29-19-33c-2.3-2-5.7-2-8,0l0,0c-3,4-19,22-19,33c0,12.7,10.3,23,23,23S391,243.7,391,231z M356,231
	c0-4,5-12,12-20c6,8,12,16,12,20c-1.9,6.4-8.6,10-14.9,8.1c-3.9-1.2-6.9-4.2-8.1-8.1H356z"/>
<circle cx="409" cy="301" r="6"/>
<path d="M165.1,294.2l1.2-1.6c-0.3-0.7-0.9-1.1-1.6-1.2l-6.8,2.5l-13.6-10L155,279l6,4h2c0.4-0.6,0.4-1.4,0-2l-5-3l6-3
	c0.7-0.4,1.1-1.2,1-2h-2l-6,3v-6c0.1-0.8-0.3-1.6-1-2h-2v8l-11,5v-15l7-3c0.7-0.4,1.1-1.2,1-2h-2l-5,2v-7c0.1-0.8-0.3-1.6-1-2h-2v7
	l-5-3h-2c-0.4,0.6-0.4,1.4,0,2l6,4l-0.1,16.5l-11.7-8.6l1.7-7.4c0.1-0.8-0.3-1.6-1-2l-1.2,1.6l-1.3,5.2l-5.7-4.1
	c-0.6-0.6-1.5-0.7-2.2-0.4l-1.2,1.6l5.7,4.1l-5.4,2.3l-1.2,1.6c0.3,0.7,0.9,1.1,1.6,1.2l6.8-2.5l13.6,10l-10.6,4.8l-6-4h-2
	c-0.4,0.6-0.4,1.4,0,2l5,3l-6,3c-0.7,0.4-1.1,1.2-1,2h2l6-3v6c-0.1,0.8,0.3,1.6,1,2h2v-8l11-5v15l-7,3c-0.7,0.4-1.1,1.2-1,2h2l5-2v7
	c-0.1,0.8,0.3,1.6,1,2h2v-7l5,3h2c0.4-0.6,0.4-1.4,0-2l-6-4l0.1-16.5l11.7,8.6l-1.7,7.4c-0.1,0.8,0.3,1.6,1,2l1.2-1.6l1.3-5.2
	l5.7,4.1c0.6,0.6,1.5,0.7,2.2,0.4l1.2-1.6l-5.7-4.1L165.1,294.2z"/>
<path d="M478,162H44c-28,3-43,57-43,107s16,105,45,105l430,1c0,0,36-21,36-106S479,163,478,162z M46,359c-12,0-33-32-33-89
	s20-92,33-92s30,35,30,92S58,359,46,359z M472,360l-403,1v-1c15-19,22-56,22-92s-8-73-23-92h404c5,5,26,23,26,93S477,357,472,360z"
	/>
<polyline points="281,188 281,256.8 292.3,256.8 292.3,188 "/>
<polyline points="281,80 281,148.8 292.3,148.8 292.3,80 "/>
<polyline points="281,281 281,349.8 292.3,349.8 292.3,281 "/>
<polyline points="281,380 281,448.8 292.3,448.8 292.3,380 "/>
</svg>
