<svg version="1.1" id="increase" xmlns="http://www.w3.org/2000/svg" xmlns:xlink="http://www.w3.org/1999/xlink" x="0px" y="0px"
	 viewBox="0 0 512 512" style="enable-background:new 0 0 512 512;" xml:space="preserve">
<path d="M497,482h-45V151h45c13.3,0,20-16.1,10.6-25.6l-120-121c-5.9-5.9-15.4-5.9-21.3,0l-120,121c-9.4,9.4-2.7,25.6,10.7,25.6h45
	v90H195c-8.3,0-15,6.7-15,15v75H75c-8.3,0-15,6.7-15,15v136H15c-8.3,0-15,6.7-15,15s6.7,15,15,15h482c8.3,0,15-6.7,15-15
	C512,488.7,505.3,482,497,482z M180,482H90V361h90V482z M302,482h-92V271h92V482z M422,136v346h-90V136c0-8.3-6.7-15-15-15h-24
	l84-84.7l84,84.7h-24C428.7,121,422,127.7,422,136z"/>
</svg>
