<svg version="1.1" id="flange" xmlns="http://www.w3.org/2000/svg" xmlns:xlink="http://www.w3.org/1999/xlink" x="0px" y="0px"
	 viewBox="0 0 512 512" style="enable-background:new 0 0 512 512;" xml:space="preserve">
<ellipse cx="280" cy="181" rx="8" ry="19"/>
<ellipse cx="244" cy="77" rx="8" ry="19"/>
<ellipse cx="244" cy="295" rx="8" ry="19"/>
<path d="M48,130c-17,0-25,31-25,60s8,60,25,60s25-31,25-60S65,130,48,130z M48,236c-3-2-11-17-11-46s8-44,11-46s11,17,11,46
	S51,238,48,236z"/>
<path d="M477,82h-33.4c0.6,2.4,1.4,4.9,2.3,7.3C428.7,49.5,400.3,16,357,16H205c-18,0-37,8-52,20s-27,28-37,48H45C18,86,3,138,3,188
	s15,99,41,104h74c21,41,54,65,88,65h160c25.2,0,59.5-21.2,81.2-64H475c0,0,36-22,36-107S478,83,477,82z M52,280h-8
	c-11-7-26-40-26-91c0-57,17-91,30-91s30,35,30,92S63,274,52,280z M71,279c14-19,22-56,22-91s-8-72-22-91h135c6,5,37,23,37,93
	s-31,86-36,89H71z M206,346c-28,1-55-19-74-53h24v1c0,11,4,19,8,19s8-9,8-19c0-0.4,0-0.7,0-1h38v-2h1c4-1,46-17,46-102
	S213,84,212,83h-40c0.1-2,0.1-4,0-6c0-10-4-19-8-19s-8,9-8,19c-0.1,2-0.1,4,0,6h-26c19-34,47-55,76-55c55,0,100,72,100,160
	s-39,149-89,158H206z M285,306c21-32,32-75,32-120s-11-87-32-120c-11-17-23-29-37-38h68.6c7.1,5.2,20.8,16.5,34.6,34.2
	c18.2,23.4,40,63,40.3,118.8c0.4,67-20.1,108.8-37.4,132c-14.1,19-28.4,29.1-34.6,32.9H246C261,337,274,323,285,306z M357,346h-20.3
	c7.3-5.9,16.2-14.5,25.1-26.4C380.2,295,402,251.1,401.6,181c-0.4-58.6-23.3-100.2-42.4-124.9c-9.5-12.3-19-21.6-26.5-28.1h30
	c46.4,0,89,69,94.4,159C462.2,274.8,412,346,357,346z M471,280h-17.9c10.1-24.9,16.2-55.9,14.9-93c-0.9-24.6-6.8-59.9-19.7-92.1
	c0.2,0.4,0.3,0.7,0.5,1.1H471c5,5,26,22,26,92S476,277,471,280z"/>
<path d="M200,509c-29.8,0-54-24.2-54-54l0,0c0-28,44-85,49-91l4-2l4,2c5,6,49,63,49,91C252,484.1,229,507.9,200,509z M200,377
	c-15,20-42,60-42,78c0,23.5,19,42.5,42.5,42.5s42.5-19,42.5-42.5C242,437,215,397,200,377z"/>
<path d="M200,486c-3,1.3-6.6-0.1-7.9-3.1c-1.3-3,0.1-6.6,3.1-7.9c1.5-0.7,3.3-0.7,4.8,0c10.5,0,19-8.5,19-19l0,0
	c1.3-3,4.9-4.4,7.9-3.1c1.4,0.6,2.5,1.7,3.1,3.1C229.5,472.3,216.3,485.5,200,486z"/>
</svg>
