<svg version="1.1" id="like" xmlns="http://www.w3.org/2000/svg" xmlns:xlink="http://www.w3.org/1999/xlink" x="0px" y="0px"
	 viewBox="0 0 512 512" style="enable-background:new 0 0 512 512;" xml:space="preserve">
<path d="M492.8,348.1c10.5-13.4,15.5-27.7,14.9-42.5c-0.6-16.3-7.9-29-13.9-36.8c7-17.3,9.6-44.6-13.6-65.8
	c-17-15.5-45.9-22.5-86-20.6c-28.2,1.3-51.7,6.5-52.7,6.7h-0.1c-5.4,1-11,2.1-16.8,3.4c-0.4-6.9,0.7-23.9,13.4-62.2
	c15-45.6,14.1-80.5-2.8-103.9C317.4,1.9,289,0,280.7,0c-8,0-15.4,3.3-20.7,9.4c-11.9,13.8-10.5,39.3-9,51.1
	c-14.1,37.9-53.7,130.8-87.3,156.6c-0.6,0.4-1.2,1-1.7,1.5c-9.9,10.4-16.5,21.6-21,31.5c-6.3-3.4-13.5-5.4-21.2-5.4H54.5
	c-24.6,0-44.5,20-44.5,44.5v174c0,24.6,20,44.5,44.5,44.5h65.3c9.5,0,18.4-3,25.7-8.1l25.2,3c3.9,0.5,72.4,9.2,142.7,7.8
	c12.7,1,24.7,1.5,35.9,1.5c19.2,0,35.9-1.5,49.8-4.5c32.8-7,55.1-20.9,66.5-41.3c8.7-15.6,8.7-31.2,7.3-41
	c21.3-19.3,25.1-40.6,24.3-55.6C496.7,360.9,494.8,353.5,492.8,348.1z M54.5,478.9c-8.7,0-15.6-7.1-15.6-15.6V289.2
	c0-8.7,7.1-15.6,15.6-15.6h65.3c8.7,0,15.6,7.1,15.6,15.6v174c0,8.7-7.1,15.6-15.6,15.6H54.5V478.9z M465.4,335.6
	c-4.5,4.7-5.4,11.9-1.9,17.5c0,0.1,4.4,7.6,4.9,17.9c0.7,14-6,26.4-20.1,37c-5,3.9-7.1,10.5-4.9,16.5c0,0.1,4.6,14.2-2.9,27.6
	c-7.2,12.8-23.1,22.1-47.3,27.2c-19.4,4.2-45.7,4.9-78.1,2.4c-0.4,0-1,0-1.5,0c-68.8,1.5-138.4-7.5-139.2-7.6h-0.1l-10.8-1.3
	c0.6-3,1-6.2,1-9.4V289.2c0-4.6-0.7-9.1-2-13.3c1.9-7.2,7.3-23.1,19.9-36.7c48.1-38.1,95.1-166.7,97.1-172.3
	c0.9-2.2,1.1-4.7,0.6-7.2c-1.8-12-1.2-26.7,1.4-31c5.7,0.1,21,1.7,30.2,14.5c10.9,15.1,10.5,42.1-1.3,77.8
	c-18,54.5-19.5,83.2-5.2,95.8c7.1,6.3,16.5,6.6,23.3,4.2c6.5-1.5,12.7-2.8,18.6-3.7c0.4-0.1,1-0.2,1.4-0.3
	c32.9-7.2,91.8-11.6,112.2,7.1c17.3,15.8,5,36.8,3.6,39.1c-4,6-2.8,13.8,2.6,18.6c0.1,0.1,11.3,10.7,11.9,24.9
	C479.2,316.2,474.7,325.9,465.4,335.6z"/>
</svg>
