<svg id="maintenance" data-name="Capa 1" xmlns="http://www.w3.org/2000/svg" viewBox="0 0 480 480"><title>maintenance</title><path d="M440,32H384V24a24,24,0,0,0-48,0v8H144V24a24,24,0,0,0-48,0v8H40A40,40,0,0,0,0,72V440a40,40,0,0,0,40,40H440a40,40,0,0,0,40-40V72A40,40,0,0,0,440,32Zm-88-8a8,8,0,0,1,16,0V88a8,8,0,0,1-16,0V24ZM336,88a24,24,0,0,0,48,0,20,20,0,0,1-4,40H340A20,20,0,0,1,336,88ZM112,24a8,8,0,0,1,16,0V88a8,8,0,0,1-16,0V24ZM96,88a24,24,0,0,0,48,0,20,20,0,0,1-4,40H100A20,20,0,0,1,96,88ZM464,440a24,24,0,0,1-24,24H40a24,24,0,0,1-24-24V176H464V440Zm0-280H16V72A24,24,0,0,1,40,48H96V72a36,36,0,0,0,4,72h40a36,36,0,0,0,4-72V48H336V72a36,36,0,0,0,4,72h40a36,36,0,0,0,4-72V48h56a24,24,0,0,1,24,24v88Z"/><rect x="96" y="192" width="16" height="16"/><rect x="64" y="192" width="16" height="16"/><rect x="32" y="192" width="16" height="16"/><path d="M433,376l-48-8a8,8,0,0,0-7,2l-6,6H264V360a8,8,0,0,0-8-8H223l-6,3-10,10-11-11-5-2H48a8,8,0,0,0-8,8v80a8,8,0,0,0,8,8H192l6-2,10-10,10,10,6,2h32a8,8,0,0,0,8-8V424H373l6,6,6,2h1l48-8a8,8,0,0,0,7-8V384A8,8,0,0,0,433,376Zm-185,8v48H227l-14-14a8,8,0,0,0-11,0l-14,14H56V368H188l15,14,6,2,6-3,13-13h22v16Zm176,25-37,6-5-5-6-2H264V392H376l6-2,5-5,37,6v18Z"/><path d="M424,296H372l-18-24,18-24h52a8,8,0,0,0,6-13l-32-40a8,8,0,0,0-6-3H344l-6,2-46,46H64a32,32,0,0,0,0,64H293l46,46,6,2h48a8,8,0,0,0,6-3l32-40A8,8,0,0,0,424,296Zm-36,40H347l-46-46-6-2H64a16,16,0,0,1,0-32H296l6-2,46-46h41l19,24H368a8,8,0,0,0-6,3l-24,32a8,8,0,0,0,0,10l24,32a8,8,0,0,0,6,3h39Z"/><rect x="72" y="384" width="56" height="16"/><rect x="144" y="384" width="16" height="16"/></svg>
