<svg id="Capa_1" data-name="Capa 1" xmlns="http://www.w3.org/2000/svg" viewBox="0 0 512 512"><title>mechanical</title><path d="M32,188a110,110,0,0,0,116,25L299,364A110,110,0,0,0,402,512h0a111,111,0,0,0,46-10,10,10,0,0,0,3-16l-40-40,3-33,33-3,40,40a10,10,0,0,0,16-3,110,110,0,0,0-22-123,110,110,0,0,0-116-25L213,148A110,110,0,0,0,110,0h0A111,111,0,0,0,64,10a10,10,0,0,0-3,16l40,40L98,99l-33,3L26,61a10,10,0,0,0-16,3A110,110,0,0,0,32,188Zm76-70a10,10,0,0,0,9-9l4-46a10,10,0,0,0-3-8L86,23a91,91,0,0,1,24-3,90,90,0,0,1,82,126,10,10,0,0,0,2,11L355,318a10,10,0,0,0,11,2A90,90,0,0,1,489,426l-32-32a10,10,0,0,0-8-3l-46,4a10,10,0,0,0-9,9l-4,46a10,10,0,0,0,3,8l32,32a91,91,0,0,1-24,3,90,90,0,0,1-82-126,10,10,0,0,0-2-11L157,194a10,10,0,0,0-11-2A90,90,0,0,1,23,86l32,32a10,10,0,0,0,8,3" fill="#050206"/><path d="M289,447l-7,48H229l-7-48a8,8,0,0,0-7-7,185,185,0,0,1-60-25,8,8,0,0,0-10,0l-39,29L69,407l29-39a8,8,0,0,0,0-10,185,185,0,0,1-25-60,8,8,0,0,0-7-7l-48-7V231l48-7a8,8,0,0,0,6-3,116,116,0,0,1-24-11L9,215a8,8,0,0,0-7,8v68a8,8,0,0,0,7,8l50,7a202,202,0,0,0,23,55L51,402a8,8,0,0,0,1,11l48,48a8,8,0,0,0,11,1l40-30a201,201,0,0,0,55,23l7,50a8,8,0,0,0,8,7h68a8,8,0,0,0,8-7l6-39a117,117,0,0,1-12-24A8,8,0,0,0,289,447Z" fill="#030104"/><path d="M222,68l7-48h53l7,48a8,8,0,0,0,7,7,185,185,0,0,1,60,25,8,8,0,0,0,10,0l39-29,38,38-29,39a8,8,0,0,0,0,10,185,185,0,0,1,25,60,8,8,0,0,0,7,7l48,7v53l-48,7h-2a116,116,0,0,1,26,13l35-5a8,8,0,0,0,7-8V224a8,8,0,0,0-7-8l-50-7a202,202,0,0,0-23-55l30-40a8,8,0,0,0-1-11L411,54a8,8,0,0,0-11-1L360,83a201,201,0,0,0-55-23l-7-50a8,8,0,0,0-8-7H222a8,8,0,0,0-8,7l-5,35a117,117,0,0,1,13,26V68Z" fill="#030104"/><path d="M226,125A136,136,0,0,1,388,286h17A153,153,0,0,0,256,105l-28,3A117,117,0,0,1,226,125Z" fill="#030104"/><path d="M285,390A136,136,0,0,1,124,226H106A153,153,0,0,0,256,410l29-3A117,117,0,0,1,285,390Z" fill="#030104"/></svg>