<svg id="others-insulation" xmlns="http://www.w3.org/2000/svg" viewBox="0 0 512 512"><title>others-insultation</title><path d="M328,245V221l-43,21V229l31-17-31-16v-7H273l-9-5-6,11,15,8v20l-14,8,3,6-31-15v25H136V221L93,242V229l32-18L93,195v-7H81l-8-4-6,11,14,7v20l-14,8,4,6L39,221v25H2V511H363V245H328Zm-35,6,23-11v23l-23-12h0Zm-8-42,6,3-6,3v-6Zm-12,27v6l-5-3Zm-30,4,23,11h0l-23,12V240ZM101,251l23-11v23l-23-12h0Zm-8-43,7,3-7,4v-7ZM81,236v5l-5-2Zm-30,4,23,11h0L51,263V240ZM14,257H39v26l48-25,48,25V257h40V368H151l24,49-24,49h25v33H14V257ZM170,454l11-23,12,23H170Zm0-74h23l-12,23ZM351,499H188V466h25l-22-43h25v9h12v-9h8V411h-8V401H216v10H192l22-43H188V257h43v26l48-25,48,25V257h23V499Z" fill="#211915"/><path d="M334,44" fill="none" stroke="#201813" stroke-miterlimit="10" stroke-width="6"/><path d="M334,44" fill="#fff" stroke="#201813" stroke-miterlimit="10" stroke-width="6"/><path d="M241,137c-10,0-15-18-15-35s5-35,15-35,15,18,15,35S251,137,241,137Zm0-62c-2,1-6,10-6,27s5,26,6,27,6-10,6-27S243,77,241,76Z" fill="#201813"/><path d="M392,118" fill="none" stroke="#201813" stroke-miterlimit="10" stroke-width="6"/><path d="M364,71" fill="none" stroke="#201813" stroke-miterlimit="10" stroke-width="6"/><path d="M489,40H453C440,16,422,2,402,2H332c-20,0-39,14-51,38H240c-16,2-25,33-25,62s9,61,26,61h40c12,24,30,38,51,38h70c21,0,39-15,51-37h35s21-13,21-62S490,41,489,40ZM402,11c18,0,34,13,45,36H386c-8-16-18-28-29-36h44Zm46,44L436,67l-65,2,15-15h62ZM332,11c19,0,37,15,47,40L366,64c-8-15-20-23-33-23H290C300,21,315,11,332,11ZM222,103c0-33,12-53,19-53s17,20,17,53-10,52-17,52S222,136,222,103Zm68,60h42c17,0,32-15,38-38l17-2c-6,41-29,70-56,70C316,193,301,182,290,163Zm112,30H358c19-13,34-38,38-71h61C451,162,428,193,402,193Zm84-37H457a133,133,0,0,0,9-39v-5l-70,2-34,3v3c-5,21-17,35-31,35H255c9-11,13-33,13-53s-5-42-13-53h78c12,0,22,9,28,23l2,6,77-2,19-20h0l-2-6h29c3,3,15,13,15,53S489,154,486,155Z" fill="#201813"/></svg>
