<svg version="1.1" id="others-pipe" xmlns="http://www.w3.org/2000/svg" xmlns:xlink="http://www.w3.org/1999/xlink" x="0px"
	 y="0px" viewBox="0 0 512 512" style="enable-background:new 0 0 512 512;" xml:space="preserve">
<title>others-pipe</title>
<path d="M328,245v-24l-43,21v-13l31-17l-31-16v-7h-12l-9-5l-6,11l15,8v20l-14,8l3,6l-31-15v25h-95v-26l-43,21v-13l32-18
	l-32-16v-7H81l-8-4l-6,11l14,7v20l-14,8l4,6l-32-15v25H2v265h361V245H328z M293,251l23-11v23L293,251L293,251z M285,209l6,3l-6,3
	V209z M273,236v6l-5-3L273,236z M243,240l23,11l0,0l-23,12V240z M101,251l23-11v23L101,251L101,251z M93,208l7,3l-7,4V208z M81,236
	v5l-5-2L81,236z M51,240l23,11l0,0l-23,12V240z M14,257h25v26l48-25l48,25v-26h40v111h-24l24,49l-24,49h25v33H14V257z M170,454
	l11-23l12,23H170z M170,380h23l-12,23L170,380z M351,499H188v-33h25l-22-43h25v9h12v-9h8v-12h-8v-10h-12v10h-24l22-43h-26V257h43v26
	l48-25l48,25v-26h23v242H351z"/>
<path d="M239,132c-10,0-15-18-15-35s5-35,15-35s15,18,15,35S249,132,239,132z M239,69c-2,1-6,10-6,27s5,26,7,27
	s7-10,7-27s-7-25-8-26V69z"/>
<path d="M491,33H237c-17,2-25,34-25,63s9,62,27,62h251c0,0,21-12,21-63S492,34,491,33z M239,149c-7,0-19-19-19-53
	s12-54,20-54s18,21,18,54S246,149,239,149z M488,150H252c9-11,13-33,13-54s-5-43-14-54h236c3,3,15,14,15,55s-12,51-15,53H488z"/>
</svg>
