<svg id="others" xmlns="http://www.w3.org/2000/svg" viewBox="0 0 510 461"><title>others</title><path d="M462,107V73l-60,30V84l44-24L402,37V27H385l-12-7-8,15,20,11V74L364,86l5,8L325,73v35H191V73l-60,30V85l45-25L131,36V27H114l-11-6L94,36l19,10V75L94,86l5,9L54,73v35H2V482H511V108H462Zm-49,8,32-16v33l-33-17h1ZM402,56l8,4-8,5V56ZM385,94v8l-8-4Zm-42,6,32,16h1l-33,17V100ZM142,116l32-16v33l-33-17h1ZM131,55l9,5-9,5V55ZM114,94v7l-7-3Zm-42,6,32,16h1L71,133V100ZM19,125H54v36l68-35,68,35V124h57V281H213l34,69-34,69h35v47H19V125ZM240,401l16-33,17,33H240Zm0-104h33l-17,33ZM494,465H264V418h36l-31-60h35v13h17V358h11V341H322V327H305v14H270l31-60H265V124h60v36l68-35,68,35V124h32V465Z" transform="translate(-2 -21)" fill="#211915"/></svg>