<svg id="other-safety" xmlns="http://www.w3.org/2000/svg" viewBox="0 0 512 512"><path d="M461,408h-2c-26-7-35-14-47-18-29-11-43-20-50-26l-6-24V319c22-30,38-67,38-106a183,183,0,0,0-1-21h24a11,11,0,0,0,0-21H406A149,149,0,0,0,310,31V21a11,11,0,0,0-6-10c-1,0-24-12-47-12s-46,11-47,12a11,11,0,0,0-6,10V31a149,149,0,0,0-96,140H97a11,11,0,0,0,0,21h24a184,184,0,0,0-1,21c0,39,16,76,38,106v20l-6,24c-7,6-21,15-50,26-12,4-21,11-47,18H52a59,59,0,0,0-40,56v49H501V463A59,59,0,0,0,461,408ZM166,80a128,128,0,0,1,37-26V96a11,11,0,0,0,21,0V28c8-3,20-7,32-7s25,4,32,7V95a11,11,0,1,0,21,0V54a128,128,0,0,1,75,116H129A127,127,0,0,1,166,80ZM140,213a162,162,0,0,1,1-21H371a162,162,0,0,1,1,21c0,35-16,74-44,105-12,14-26,26-40,34s-24,11-33,11-20-4-33-11-27-20-40-34C156,287,140,248,140,213ZM275,402l-5,14H243l-5-14,18-16Zm-60,89H33V463a37,37,0,0,1,25-35h1a207,207,0,0,0,40-15l9-4c15-6,34-14,49-24l26,47a11,11,0,0,0,7,5h2l7-3,21-18,4,11Zm-20-81-24-43,6-23c17,17,36,30,53,36Zm61,81H237l8-53h24l8,53H257Zm78-147,6,23-24,43-36-30C299,373,318,360,335,343ZM480,491H298l-9-63,4-11,21,18,7,3h2a11,11,0,0,0,7-5l26-47c14,10,33,18,49,24l9,4a207,207,0,0,0,40,15h1a37,37,0,0,1,25,35v27Z"/></svg>
