<?xml version="1.0" encoding="utf-8"?>
<!-- Generator: Adobe Illustrator 22.0.1, SVG Export Plug-In . SVG Version: 6.00 Build 0)  -->
<svg version="1.1" id="Capa_1" xmlns="http://www.w3.org/2000/svg" xmlns:xlink="http://www.w3.org/1999/xlink" x="0px" y="0px"
	 viewBox="0 0 58 58" style="enable-background:new 0 0 58 58;" xml:space="preserve">
<path d="M17.5,24.1c-0.5,0-0.8,0.1-1,0.1V31c0.2,0,0.5,0.1,0.8,0.1c2.1,0.1,3.5-1.1,3.5-3.6C20.7,25.2,19.4,24.1,17.5,24.1z"/>
<path d="M35,50c0.1,0,0.1,0,0.2,0h15.9c1.9,0,3.4-1.5,3.4-3.4V9.8c0-1.9-1.5-3.4-3.4-3.4H35.2c-0.1,0-0.1,0-0.2,0V2l-31,4.1v44.1
	l31,4.2V50z M51.1,48.1H35.2c-0.1,0-0.1,0-0.2,0V33.6c3.3-0.6,7.9-1,11.9-0.1l0.5,0.9c1.9,3.6,3.9,3.6,4.7,3.4
	c0.2,0,0.3-0.1,0.3-0.1l0.1-0.1c0,0,0.1-0.1,0.1-0.1v9C52.5,47.4,51.9,48.1,51.1,48.1z M36.3,31.9c2.5-3,4.5-5.9,5.8-7.8l0,0l0,0
	c1,2.1,2.7,5.5,3.8,7.7l0,0l0,0.1C42.8,31.3,39.2,31.5,36.3,31.9L36.3,31.9L36.3,31.9z M42.2,17.7c0.1-0.2,0.2-0.2,0.5-0.2
	c0,0,0.5,0,0.7,0.4c0.1,0.2,0.3,0.9-0.6,2.5h0c0,0-0.1,0.2-0.3,0.6C41.9,19.2,42,18.1,42.2,17.7z M48.8,34.1
	c0.9,0.4,1.8,0.8,2.5,1.3c0.2,0.3,0.4,0.7,0.4,0.9c0,0,0,0,0,0C51.4,36.5,50.2,36.5,48.8,34.1z M35.2,8.3h15.9
	c0.8,0,1.4,0.6,1.4,1.4v24.9c0-0.1-0.1-0.1-0.1-0.1l-0.1-0.1l-0.1-0.1c-1.2-0.9-2.7-1.6-4.4-2.1c-1.2-2.4-3.7-7.3-4.8-9.6
	c0.6-0.9,0.9-1.5,1-1.5c1-1.7,1.2-3,0.6-4c-0.5-0.8-1.4-1.1-1.9-1.1c-0.8,0-1.5,0.3-1.8,0.9c-0.6,1-0.4,2.7,0.3,5.1
	c0,0.1,0.1,0.3,0.2,0.4c-1.3,1.9-3.5,5.2-6.5,8.7V8.3C35.1,8.3,35.1,8.3,35.2,8.3z M11.9,28c-0.7,0.7-1.8,1-3.1,1
	c-0.3,0-0.5,0-0.7-0.1v3.5l-2-0.1v-9.7c0.6-0.1,1.5-0.2,2.8-0.3c1.3,0,2.2,0.2,2.9,0.7c0.6,0.5,1,1.3,1,2.3
	C12.8,26.6,12.5,27.4,11.9,28z M21.5,31.6c-1.1,0.9-2.8,1.3-4.7,1.2c-1.2,0-2-0.1-2.5-0.2v-10c0.8-0.2,1.9-0.3,3-0.3
	c1.9,0,3.2,0.3,4.2,1c1.1,0.8,1.8,2.1,1.8,4C23.2,29.4,22.5,30.8,21.5,31.6z M24.8,22.2l6.9-0.2v2.1l-4.4,0.1v2.5l4.1,0v2l-4.1,0V33
	L24.8,33L24.8,22.2L24.8,22.2L24.8,22.2z"/>
<path d="M9,24.2c-0.4,0-0.7,0.1-0.9,0.1v2.9c0.2,0,0.4,0.1,0.7,0.1c1.1,0,1.8-0.6,1.8-1.6C10.6,24.7,10,24.2,9,24.2z"/>
</svg>
