<svg version="1.1" id="others" xmlns="http://www.w3.org/2000/svg" xmlns:xlink="http://www.w3.org/1999/xlink" x="0px" y="0px"
	 viewBox="0 0 512 512" style="enable-background:new 0 0 512 512;" xml:space="preserve">
<style type="text/css">
	.st0{font-family:'ArialMT';}
	.st1{font-size:150px;}
	.st2{font-size:70px;}
</style>
<path d="M272.6,340.1c-5.8-5.8-13.7-9-21.5-9s-15.7,3.2-21.5,9c-5.8,5.8-9,13.7-9,21.5s3.2,15.7,9,21.5c5.8,5.8,13.7,9,21.5,9
	s15.7-3.2,21.5-9c5.8-5.8,9-13.7,9-21.5C281.6,353.8,278.4,345.9,272.6,340.1z M265.4,375.8c-3.7,3.7-9,5.8-14.1,5.8
	s-10.6-2.1-14.1-5.8c-3.7-3.7-5.8-9-5.8-14.1c0-5.1,2.1-10.6,5.8-14.1c3.7-3.7,9-5.8,14.1-5.8s10.6,2.1,14.1,5.8s5.8,8.8,5.8,14.1
	S269.1,372.3,265.4,375.8z"/>
<path d="M372.7,143.6C372.7,76.1,317.9,22,251.1,22c-67.5,0-121.6,54.8-121.6,121.6c0,16.9,13.7,30.5,30.5,30.5s30.5-13.7,30.5-30.5
	c0-33.1,26.8-60.1,60.1-60.1c33.1,0,60.1,26.8,60.1,60.1s-26.8,60.1-60.1,60.1c-16.9,0-30.5,13.7-30.5,30.5v46.3
	c0,16.9,13.7,30.5,30.5,30.5s30.5-13.7,31.7-30.5v-19.4h-0.2C336.4,247.9,372.7,201,372.7,143.6z M274.5,251.6c-2.4,0.5-4,2.6-4,5.3
	v23.1c0,11.1-9,20.1-20.1,20.1c-11.1,0-20.1-9-20.1-20.1v-46.3c0-11.1,9-20.1,20.1-20.1c39,0,70.5-31.7,70.5-70.5
	s-31.7-70.5-70.5-70.5s-70.5,31.7-71.7,71c0,11.1-9,20.1-20.1,20.1c-11.1,0-20.1-9-20.1-20.1c0-61.5,50-111.2,111.2-111.2
	c61.5,0,111.2,50,111.2,111.2C361,197.3,326.3,241,274.5,251.6z"/>
<text transform="matrix(1 0 0 1 345 481.5)" class="st0 st1">m</text>
<text transform="matrix(1 0 0 1 460 434.5)" class="st0 st2">2</text>
</svg>
