<svg id="safety" xmlns="http://www.w3.org/2000/svg" viewBox="0 0 496 496"><path d="M40,311H472a32,32,0,0,0,16-60A232,232,0,0,0,320,32h0A24,24,0,0,0,296,7H216a24,24,0,0,0-24,24h0A232,232,0,0,0,24,251,32,32,0,0,0,40,311Zm0-48H440V247H40A216,216,0,0,1,160,62V199h16V54l16-6V231h16V31a8,8,0,0,1,8-8h80a8,8,0,0,1,8,8V231h16V49l16,6V199h16V62A216,216,0,0,1,472,247H456v16h16a16,16,0,0,1,0,32H40A16,16,0,0,1,40,263Z" transform="translate(-8 -7)"/><rect x="328" y="208" width="16" height="16"/><rect x="152" y="208" width="16" height="16"/><path d="M416,327H96a56,56,0,0,0-51,32H8V471H45a56,56,0,0,0,51,32h88a47,47,0,0,0,42-26l3-5a31,31,0,0,1,55,0l3,5a47,47,0,0,0,42,26h88a56,56,0,0,0,51-32h37V359H467A56,56,0,0,0,416,327ZM24,455V407H40v40a56,56,0,0,0,1,8H24Zm16-72v8H24V375H41A56,56,0,0,0,40,383Zm416,64a40,40,0,0,1-40,40H328a31,31,0,0,1-28-17l-3-5a47,47,0,0,0-84,0l-3,5a31,31,0,0,1-28,17H96a40,40,0,0,1-40-40V383a40,40,0,0,1,40-40H416a40,40,0,0,1,40,40v64Zm32-72v16H472v-8a56,56,0,0,0-1-8h17Zm-16,72V407h16v48H471A56,56,0,0,0,472,447Z" transform="translate(-8 -7)"/><rect x="224" y="352" width="16" height="16"/><path d="M72,383v56H88V383a8,8,0,0,1,8-8H216V359H96A24,24,0,0,0,72,383Z" transform="translate(-8 -7)"/></svg>
