<svg version="1.1" id="structural" xmlns="http://www.w3.org/2000/svg" xmlns:xlink="http://www.w3.org/1999/xlink" x="0px" y="0px"
	 viewBox="0 0 512 512" style="enable-background:new 0 0 512 512;" xml:space="preserve">
<g>
	<path d="M512,59.2V8.5c0-0.1-0.1-0.2-0.1-0.4c0.2-0.7,0.2-1.5-0.2-2.1l-0.4-0.7c0-0.1-0.1-0.1-0.1-0.2c-0.4-0.8-0.9-1.6-1.5-2.3
		c-0.2-0.2-0.4-0.4-0.7-0.6c-0.5-0.5-1.1-0.9-1.8-1.2c-0.3-0.1-0.5-0.3-0.8-0.4c-0.9-0.4-2-0.6-3-0.6H230.5c-2.3,0-4.4,0.9-6,2.5
		L2.5,224.3l0,0c-0.7,0.7-1.2,1.5-1.6,2.4c-0.4,1-0.6,2-0.7,3.1c0,0.2-0.1,0.3-0.1,0.5v51.2c0,4.7,3.8,8.5,8.5,8.5h64
		c21.2,0,38.4,17.2,38.4,38.4v9.3L2.5,446c-1.6,1.6-2.5,3.8-2.5,6v51.4c0,4.7,3.8,8.5,8.5,8.5h273.1c1.2,0,2.3-0.2,3.3-0.7
		c0.1,0,0.2-0.2,0.3-0.2c0.9-0.4,1.7-1,2.4-1.7l0.1-0.1L458.2,330l51.2-51.3c1.6-1.6,2.5-3.8,2.5-6v-51.3c0-0.1-0.1-0.2-0.1-0.4
		c0.2-0.7,0.2-1.5-0.2-2.1l-0.4-0.8c0-0.1-0.1-0.1-0.1-0.2c-0.8-1.7-2.2-3.2-4-4.1c-0.3-0.1-0.5-0.3-0.8-0.4c-0.9-0.4-2-0.6-3-0.6
		h-64c-0.7,0-1.4,0.2-2.1,0.4c-0.7-0.2-1.4-0.4-2.1-0.4c-19.9-0.1-36.5-15.4-38.1-35.2L509.5,65.3C511.1,63.7,512,61.5,512,59.2z
		 M233.5,17h249.2l-205,205H28.5L233.5,17z M111,362.2v43.4c0,21.2-17.2,38.4-38.4,38.4H29.2L111,362.2z M273,495H17v-34h55.5
		c30.6,0,55.5-24.8,55.5-55.3v-77.5c0-30.5-24.9-55.2-55.5-55.3H17v-34h256v34h-55.5c-30.6,0-55.5,24.8-55.5,55.3v77.5
		c0,30.5,24.9,55.2,55.5,55.3H273V495L273,495z M495,269.4l-48.9,48.9L290,482.2v-26.5L458.3,279l36.7-36.7V269.4L495,269.4z
		 M436.1,230c0.7,0,1.5-0.2,2.1-0.4c0.7,0.2,1.4,0.4,2.1,0.4h41.8l-36.7,36.7L277.6,443h-60.2c-21.2,0-38.3-17.2-38.3-38.3v-76.1
		c0-21.3,17.3-38.5,38.6-38.6H282c2.3,0,4.5-0.9,6.1-2.5l95.5-95.5C391,214.7,412.2,230,436.1,230z M495,56L382.2,168.9l0,0L290,261
		v-27L495,29V56L495,56z"/>
</g>
</svg>
