<svg version="1.1" id="surface" xmlns="http://www.w3.org/2000/svg" xmlns:xlink="http://www.w3.org/1999/xlink" x="0px" y="0px"
	 viewBox="0 0 512 512" style="enable-background:new 0 0 512 512;" xml:space="preserve">
<path d="M379.7,375.5h-45.2V239c0-13.5-1.1-23.2-3.1-28.8c-1.9-5.2-5.3-9.3-10.5-12.5c-5.2-3.3-11.4-4.9-18.6-4.9
	c-13.4,0-24.2,4.3-33,13.2c-8.7,8.7-13.1,23.3-13.1,43.4v126.3h-45.4V234.8c0-14.6-2.6-25.5-7.7-32.4c-4.8-6.6-12.8-9.8-24.3-9.8
	c-9,0-17.4,2.4-25,7.1c-7.6,4.7-12.9,11.4-16.3,20.5c-3.6,9.5-5.4,23.6-5.4,41.9v113.3H86.8V156.7h41.6v19.8
	c5.4-5.7,11.6-10.5,18.7-14.6c11.6-6.6,24.9-10,39.6-10c16.4,0,30.1,3.5,40.8,10.4c8.3,5.4,14.8,12.5,19.3,21.2
	c16.7-21,38-31.6,63.4-31.6c22,0,39.3,6.3,51.4,18.7c12,12.4,18.1,31.4,18.1,56.5V375.5z M344.5,365.5h25.2V227.2
	c0-22.4-5.1-39-15.3-49.5c-10.1-10.4-25-15.7-44.2-15.7c-24.9,0-44.7,11.2-60.3,34.4l-5.6,8.2l-3.3-9.4
	c-3.7-10.6-9.9-18.5-18.9-24.4c-9-5.9-20.9-8.8-35.3-8.8c-12.9,0-24.6,2.9-34.7,8.7c-10.1,5.8-18.3,13.5-24.4,23l-9.2,14.4v-41.4
	H96.8v198.8h25.4V262.2c0-19.8,2-34.6,6-45.4c4.2-11.1,11-19.7,20.4-25.5c9.2-5.7,19.4-8.6,30.3-8.6c14.7,0,25.6,4.7,32.3,13.8
	c6.4,8.7,9.6,21.6,9.6,38.3v130.6h25.4V249.2c0-22.8,5.4-39.7,16-50.4c10.6-10.7,24.1-16.1,40.1-16.1c9,0,17.1,2.2,23.9,6.5
	c7,4.4,11.8,10.3,14.5,17.5c2.5,6.9,3.7,17.4,3.7,32.3V365.5z"/>
<path d="M459.8,211.4h-79.7l0.6-5.5c0.8-7.6,3.3-14.9,7.4-21.7c4-6.7,11.6-15.1,23-25.7c10.7-9.9,14.4-14.2,15.6-16
	c2.1-3.2,3.2-6.3,3.2-9.2c0-3-0.7-5.2-2.1-6.6c-1.4-1.4-3.4-2.1-6.3-2.1c-3.7,0-5.3,1.3-6.3,2.2c-1.1,1.1-2.4,3.6-2.8,9.2l-0.3,5.2
	l-29.8-3l0.5-5c1.3-12.2,5.7-21.2,12.9-26.8c7-5.4,15.8-8.1,26.2-8.1c11.4,0,20.6,3.2,27.4,9.6c6.8,6.4,10.3,14.5,10.3,24.1
	c0,5.2-1,10.3-2.8,15.1c-1.8,4.6-4.7,9.5-8.6,14.4c-2.6,3.3-7,7.8-13.5,13.7c-4.2,3.8-6.9,6.4-8.7,8.2h33.6V211.4z M391.6,201.4
	h58.1v-8.3H407l4.3-7.5c1.2-2.1,2.7-4.2,4.6-6.3c1.8-2,5.8-5.9,12.2-11.7c6-5.5,10.2-9.7,12.4-12.5c3.3-4.2,5.7-8.2,7.2-11.9
	c1.4-3.6,2.1-7.4,2.1-11.4c0-6.8-2.3-12.3-7.1-16.8c-4.9-4.6-11.6-6.8-20.5-6.8c-8.2,0-14.8,2-20.1,6.1c-4.1,3.1-6.9,8.1-8.3,14.9
	l9.5,1c0.9-4.5,2.5-7.9,5-10.4c3.4-3.5,7.9-5.2,13.4-5.2c5.5,0,10,1.7,13.3,5c3.3,3.3,5,7.9,5,13.7c0,5-1.7,10-4.9,14.8
	c-1.5,2.1-4.8,6.2-17.1,17.7c-10.6,9.9-17.8,17.8-21.3,23.6C394.4,193.2,392.7,197.2,391.6,201.4z"/>
</svg>
