<svg id="traffice" xmlns="http://www.w3.org/2000/svg" viewBox="0 0 512 512"><path d="M499,404H457V30a10,10,0,0,0-21,0V287H357L265,37a11,11,0,0,0-10-7H74A10,10,0,0,0,64,41V284L1,388a10,10,0,0,0,4,14h5a10,10,0,0,0,9-5L80,298H183l19,56a10,10,0,0,0,10,7h64l6-2,71-51h82V415a10,10,0,0,0,10,10h53A10,10,0,1,0,499,404ZM273,340H220l-19-56a10,10,0,0,0-10-7H85V51H248l68,183H273l-18-46,16-9a10,10,0,0,0-11-18l-53,32a10,10,0,0,0-4,14,11,11,0,0,0,9,5h5l19-11,20,50a10,10,0,0,0,10,7h57l14,39Z"/><path d="M201,234H146l-18-78a10,10,0,1,0-20,5l20,86a10,10,0,0,0,10,8h64a11,11,0,0,0,11-11A10,10,0,0,0,201,234Z"/><path d="M265,405H181a10,10,0,0,0,0,21h84A10,10,0,1,0,265,405Z"/><path d="M95,351a64,64,0,0,0-63,64c0,36,28,64,63,64a64,64,0,0,0,64-64C159,380,130,351,95,351Zm0,107c-23,0-42-20-42-43a43,43,0,0,1,42-43c24,0,43,19,43,43S119,458,95,458Z"/><path d="M350,351a64,64,0,0,0-63,64c0,36,28,64,63,64a64,64,0,0,0,64-64C414,380,386,351,350,351Zm0,107c-23,0-42-20-42-43a43,43,0,0,1,42-43c24,0,43,19,43,43S374,458,350,458Z"/></svg>
