<svg id="valve" xmlns="http://www.w3.org/2000/svg" viewBox="0 0 512 512"><path d="M409,296v-9a26,26,0,1,0-51,0v9H328a88,88,0,0,0-16-15l-5-4V236h17a26,26,0,1,0,0-51H290V168h17a9,9,0,0,0,9-9V134h51a26,26,0,0,0,0-51H145a26,26,0,0,0,0,51h51v26a9,9,0,0,0,9,9h17v17H188a26,26,0,1,0,0,51h17v41l-5,4a88,88,0,0,0-16,15H154v-9a26,26,0,1,0-51,0v9H0V415H103v9a26,26,0,1,0,51,0v-9h30a93,93,0,0,0,132,13l13-13h30v9a26,26,0,0,0,51,0v-9H511V296H409ZM103,398H17V313h85v85Zm34,26a9,9,0,1,1-17,0V287a9,9,0,0,1,9-9l6,3a8,8,0,0,1,2,6V424Zm9-306a9,9,0,0,1,0-17H366a9,9,0,0,1,0,17H145Zm68,34V134h85v17H213Zm60,17v17H239V168h34Zm-85,51a9,9,0,0,1-9-9,8,8,0,0,1,3-6l6-2H324a9,9,0,0,1,9,9,8,8,0,0,1-3,6l-6,2H188ZM358,398H324a9,9,0,0,0-7,3,76,76,0,0,1-122,0,9,9,0,0,0-7-3H154V313h34a9,9,0,0,0,7-3,76,76,0,0,1,23-20,9,9,0,0,0,4-7V236h68v46a9,9,0,0,0,4,7l8,5a71,71,0,0,1,15,15,9,9,0,0,0,7,3h34v85Zm34,26a9,9,0,1,1-17,0V287a8,8,0,0,1,3-6l6-2a9,9,0,0,1,9,9V424Zm102-26H409V313h85v85Z" transform="translate(0 -1)" fill="#030104"/></svg>