<?xml version="1.0" encoding="iso-8859-1"?>
<!-- Generator: Adobe Illustrator 19.0.0, SVG Export Plug-In . SVG Version: 6.00 Build 0)  -->
<svg version="1.1" id="Capa_1" xmlns="http://www.w3.org/2000/svg" xmlns:xlink="http://www.w3.org/1999/xlink" x="0px" y="0px"
	 viewBox="0 0 511.983 511.983" style="enable-background:new 0 0 511.983 511.983;" xml:space="preserve">
<g>
	<g>
		<path d="M430.926,136.533h59.733c4.71,0,8.533-3.823,8.533-8.533V8.533c0-4.71-3.823-8.533-8.533-8.533H21.326
			c-3.302,0-6.315,1.911-7.723,4.898c-1.408,2.987-0.964,6.519,1.143,9.071L215.05,255.991L14.747,498.014
			c-2.099,2.543-2.552,6.084-1.143,9.071s4.42,4.898,7.723,4.898H490.66c4.71,0,8.533-3.823,8.533-8.533V383.983
			c0-4.71-3.823-8.533-8.533-8.533h-59.733c-4.71,0-8.533,3.823-8.533,8.533v51.2H184.398l142.2-173.773
			c2.577-3.149,2.577-7.663,0-10.812L184.398,76.8h237.995V128C422.393,132.71,426.216,136.533,430.926,136.533z"/>
	</g>
</g>
<g>
</g>
<g>
</g>
<g>
</g>
<g>
</g>
<g>
</g>
<g>
</g>
<g>
</g>
<g>
</g>
<g>
</g>
<g>
</g>
<g>
</g>
<g>
</g>
<g>
</g>
<g>
</g>
<g>
</g>
</svg>
